<svg width="23" height="23" viewBox="0 0 23 23" fill="none" xmlns="http://www.w3.org/2000/svg">
<path fill-rule="evenodd" clip-rule="evenodd" d="M21 11.5C21 16.7467 16.7467 21 11.5 21C6.25329 21 2 16.7467 2 11.5C2 6.25329 6.25329 2 11.5 2C16.7467 2 21 6.25329 21 11.5ZM23 11.5C23 17.8513 17.8513 23 11.5 23C5.14873 23 0 17.8513 0 11.5C0 5.14873 5.14873 0 11.5 0C17.8513 0 23 5.14873 23 11.5ZM6.5 10C7.32843 10 8 10.6716 8 11.5C8 12.3284 7.32843 13 6.5 13C5.67157 13 5 12.3284 5 11.5C5 10.6716 5.67157 10 6.5 10ZM13 11.5C13 10.6716 12.3284 10 11.5 10C10.6716 10 10 10.6716 10 11.5C10 12.3284 10.6716 13 11.5 13C12.3284 13 13 12.3284 13 11.5ZM16.5 10C17.3284 10 18 10.6716 18 11.5C18 12.3284 17.3284 13 16.5 13C15.6716 13 15 12.3284 15 11.5C15 10.6716 15.6716 10 16.5 10Z"/>
</svg>
