<svg width="16" height="16" viewBox="0 0 16 16" fill="none" xmlns="http://www.w3.org/2000/svg">
<path d="M8.00437 14C7.17854 14 6.40104 13.8438 5.67188 13.5312C4.94271 13.2188 4.30469 12.7891 3.75781 12.2422C3.21094 11.6953 2.78125 11.0575 2.46875 10.3288C2.15625 9.6 2 8.82135 2 7.99281C2 7.16427 2.15625 6.38802 2.46875 5.66406C2.78125 4.9401 3.21094 4.30469 3.75781 3.75781C4.30469 3.21094 4.9425 2.78125 5.67125 2.46875C6.4 2.15625 7.17865 2 8.00719 2C8.83573 2 9.61198 2.15625 10.3359 2.46875C11.0599 2.78125 11.6953 3.21094 12.2422 3.75781C12.7891 4.30469 13.2188 4.94125 13.5312 5.6675C13.8438 6.39385 14 7.1699 14 7.99563C14 8.82146 13.8438 9.59896 13.5312 10.3281C13.2188 11.0573 12.7891 11.6953 12.2422 12.2422C11.6953 12.7891 11.0588 13.2188 10.3325 13.5312C9.60615 13.8438 8.8301 14 8.00437 14ZM8.5625 12.8438C9.78125 12.6979 10.8047 12.1681 11.6328 11.2544C12.4609 10.3406 12.875 9.25583 12.875 8C12.875 6.74417 12.4609 5.65937 11.6328 4.74562C10.8047 3.83187 9.78125 3.30208 8.5625 3.15625V12.8438Z" fill="black"/>
</svg>
