<svg width="16" height="16" viewBox="0 0 16 16" fill="none" xmlns="http://www.w3.org/2000/svg">
<path d="M14.438 10.1481C14.628 9.72308 14.117 9.36108 13.69 9.54708C12.6774 9.98739 11.5557 10.1127 10.4709 9.90678C9.38614 9.70083 8.38845 9.17314 7.60769 8.39238C6.82692 7.61161 6.29923 6.61392 6.09329 5.52912C5.88734 4.44433 6.01268 3.32266 6.45298 2.31008C6.63898 1.88308 6.27698 1.37208 5.85298 1.56208C4.8901 1.99154 4.04612 2.64873 3.3938 3.47701C2.74148 4.30529 2.30039 5.27979 2.10857 6.3165C1.91675 7.35321 1.97994 8.42102 2.29271 9.42787C2.60548 10.4347 3.15843 11.3504 3.90389 12.0959C4.64936 12.8415 5.56497 13.3946 6.57178 13.7074C7.57859 14.0203 8.64639 14.0836 9.68313 13.8919C10.7199 13.7002 11.6944 13.2593 12.5228 12.607C13.3511 11.9548 14.0084 11.1109 14.438 10.1481Z" fill="black"/>
</svg>
