<svg width="16" height="16" viewBox="0 0 16 16" fill="none" xmlns="http://www.w3.org/2000/svg">
<path d="M8 1C8.19891 1 8.38968 1.07902 8.53033 1.21967C8.67098 1.36032 8.75 1.55109 8.75 1.75V3.25C8.75 3.44891 8.67098 3.63968 8.53033 3.78033C8.38968 3.92098 8.19891 4 8 4C7.80109 4 7.61032 3.92098 7.46967 3.78033C7.32902 3.63968 7.25 3.44891 7.25 3.25V1.75C7.25 1.55109 7.32902 1.36032 7.46967 1.21967C7.61032 1.07902 7.80109 1 8 1ZM10.5 8C10.5 8.66304 10.2366 9.29893 9.76777 9.76777C9.29893 10.2366 8.66304 10.5 8 10.5C7.33696 10.5 6.70107 10.2366 6.23223 9.76777C5.76339 9.29893 5.5 8.66304 5.5 8C5.5 7.33696 5.76339 6.70107 6.23223 6.23223C6.70107 5.76339 7.33696 5.5 8 5.5C8.66304 5.5 9.29893 5.76339 9.76777 6.23223C10.2366 6.70107 10.5 7.33696 10.5 8ZM12.95 4.11C13.0237 4.04134 13.0828 3.95854 13.1238 3.86654C13.1648 3.77454 13.1868 3.67523 13.1886 3.57452C13.1904 3.47382 13.1718 3.37379 13.1341 3.2804C13.0964 3.18701 13.0403 3.10218 12.969 3.03096C12.8978 2.95974 12.813 2.9036 12.7196 2.86588C12.6262 2.82816 12.5262 2.80963 12.4255 2.81141C12.3248 2.81319 12.2255 2.83523 12.1335 2.87622C12.0415 2.91721 11.9587 2.97631 11.89 3.05L10.828 4.11C10.6872 4.2507 10.608 4.44158 10.6079 4.64065C10.6078 4.83972 10.6868 5.03067 10.8275 5.1715C10.9682 5.31233 11.1591 5.3915 11.3581 5.39159C11.5572 5.39169 11.7482 5.3127 11.889 5.172L12.949 4.111L12.95 4.11ZM15 8C15 8.19891 14.921 8.38968 14.7803 8.53033C14.6397 8.67098 14.4489 8.75 14.25 8.75H12.75C12.5511 8.75 12.3603 8.67098 12.2197 8.53033C12.079 8.38968 12 8.19891 12 8C12 7.80109 12.079 7.61032 12.2197 7.46967C12.3603 7.32902 12.5511 7.25 12.75 7.25H14.25C14.4489 7.25 14.6397 7.32902 14.7803 7.46967C14.921 7.61032 15 7.80109 15 8ZM11.89 12.95C12.0322 13.0825 12.2202 13.1546 12.4145 13.1512C12.6088 13.1477 12.7942 13.069 12.9316 12.9316C13.069 12.7942 13.1477 12.6088 13.1512 12.4145C13.1546 12.2202 13.0825 12.0322 12.95 11.89L11.89 10.828C11.8203 10.7583 11.7376 10.7029 11.6466 10.6652C11.5555 10.6274 11.4579 10.608 11.3594 10.6079C11.2608 10.6079 11.1632 10.6272 11.0721 10.6649C10.981 10.7026 10.8982 10.7578 10.8285 10.8275C10.7588 10.8972 10.7034 10.9799 10.6657 11.0709C10.6279 11.162 10.6085 11.2596 10.6084 11.3581C10.6083 11.5572 10.6873 11.7482 10.828 11.889L11.889 12.949L11.89 12.95ZM8 12C8.19891 12 8.38968 12.079 8.53033 12.2197C8.67098 12.3603 8.75 12.5511 8.75 12.75V14.25C8.75 14.4489 8.67098 14.6397 8.53033 14.7803C8.38968 14.921 8.19891 15 8 15C7.80109 15 7.61032 14.921 7.46967 14.7803C7.32902 14.6397 7.25 14.4489 7.25 14.25V12.75C7.25 12.5511 7.32902 12.3603 7.46967 12.2197C7.61032 12.079 7.80109 12 8 12ZM5.172 11.89C5.24173 11.8203 5.29706 11.7376 5.33482 11.6466C5.37259 11.5555 5.39205 11.4579 5.39209 11.3594C5.39214 11.2608 5.37277 11.1632 5.33509 11.0721C5.29742 10.981 5.24217 10.8982 5.1725 10.8285C5.10283 10.7588 5.02012 10.7034 4.92907 10.6657C4.83802 10.6279 4.74042 10.6085 4.64185 10.6084C4.54328 10.6084 4.44567 10.6277 4.35459 10.6654C4.2635 10.7031 4.18073 10.7583 4.111 10.828L3.05 11.89C2.97631 11.9587 2.91721 12.0415 2.87622 12.1335C2.83523 12.2255 2.81319 12.3248 2.81141 12.4255C2.80963 12.5262 2.82816 12.6262 2.86588 12.7196C2.9036 12.813 2.95974 12.8978 3.03096 12.969C3.10218 13.0403 3.18701 13.0964 3.2804 13.1341C3.37379 13.1718 3.47382 13.1904 3.57452 13.1886C3.67523 13.1868 3.77454 13.1648 3.86654 13.1238C3.95854 13.0828 4.04134 13.0237 4.11 12.95L5.17 11.89H5.172ZM4 8C4 8.19891 3.92098 8.38968 3.78033 8.53033C3.63968 8.67098 3.44891 8.75 3.25 8.75H1.75C1.55109 8.75 1.36032 8.67098 1.21967 8.53033C1.07902 8.38968 1 8.19891 1 8C1 7.80109 1.07902 7.61032 1.21967 7.46967C1.36032 7.32902 1.55109 7.25 1.75 7.25H3.25C3.44891 7.25 3.63968 7.32902 3.78033 7.46967C3.92098 7.61032 4 7.80109 4 8ZM4.11 5.172C4.25083 5.31296 4.44189 5.39221 4.64115 5.3923C4.8404 5.39239 5.03154 5.31333 5.1725 5.1725C5.31346 5.03167 5.39271 4.84061 5.3928 4.64135C5.39289 4.4421 5.31383 4.25096 5.173 4.11L4.11 3.05C4.04134 2.97631 3.95854 2.91721 3.86654 2.87622C3.77454 2.83523 3.67523 2.81319 3.57452 2.81141C3.47382 2.80963 3.37379 2.82816 3.2804 2.86588C3.18701 2.9036 3.10218 2.95974 3.03096 3.03096C2.95974 3.10218 2.9036 3.18701 2.86588 3.2804C2.82816 3.37379 2.80963 3.47382 2.81141 3.57452C2.81319 3.67523 2.83523 3.77454 2.87622 3.86654C2.91721 3.95854 2.97631 4.04134 3.05 4.11L4.11 5.17V5.172Z" fill="black"/>
</svg>
