<svg width="16" height="16" viewBox="0 0 16 16" fill="none" xmlns="http://www.w3.org/2000/svg">
<path fill-rule="evenodd" clip-rule="evenodd" d="M11.89 4.11099C11.1208 3.34178 10.1408 2.81793 9.07391 2.60569C8.00701 2.39345 6.90113 2.50236 5.89613 2.91863C4.89112 3.33491 4.03212 4.03986 3.42776 4.94433C2.8234 5.84881 2.50083 6.91219 2.50083 7.99999C2.50083 9.0878 2.8234 10.1512 3.42776 11.0557C4.03212 11.9601 4.89112 12.6651 5.89613 13.0814C6.90113 13.4976 8.00701 13.6065 9.07391 13.3943C10.1408 13.1821 11.1208 12.6582 11.89 11.889C11.9592 11.8174 12.042 11.7603 12.1335 11.721C12.225 11.6818 12.3235 11.6611 12.4231 11.6603C12.5226 11.6595 12.6214 11.6785 12.7135 11.7163C12.8057 11.754 12.8894 11.8098 12.9598 11.8802C13.0302 11.9507 13.0858 12.0344 13.1235 12.1266C13.1612 12.2188 13.1801 12.3176 13.1792 12.4172C13.1783 12.5167 13.1575 12.6151 13.1182 12.7066C13.0788 12.7981 13.0217 12.8808 12.95 12.95C11.8049 14.0952 10.2982 14.8079 8.6865 14.9668C7.07482 15.1256 5.45794 14.7207 4.11134 13.821C2.76474 12.9213 1.77174 11.5826 1.30154 10.0329C0.831337 8.48317 0.913024 6.81836 1.53268 5.32211C2.15234 3.82587 3.27162 2.59077 4.69983 1.82726C6.12803 1.06375 7.77679 0.819072 9.36518 1.13491C10.9536 1.45075 12.3833 2.30757 13.4108 3.55937C14.4382 4.81117 14.9999 6.38051 15 7.99999C15 8.47324 14.8657 8.93676 14.6127 9.33668C14.3596 9.73661 13.9983 10.0565 13.5706 10.2592C13.143 10.4618 12.6666 10.539 12.1969 10.4816C11.7271 10.4242 11.2833 10.2347 10.917 9.93499C10.4529 10.6349 9.75267 11.1446 8.94402 11.3711C8.13538 11.5976 7.27225 11.5258 6.51214 11.1688C5.75202 10.8118 5.1456 10.1934 4.80353 9.42649C4.46146 8.65954 4.40655 7.79518 4.6488 6.99111C4.89106 6.18704 5.41435 5.49688 6.12317 5.04657C6.83199 4.59625 7.67909 4.4158 8.5099 4.53814C9.34071 4.66048 10.0998 5.07746 10.6488 5.71299C11.1977 6.34852 11.4998 7.16022 11.5 7.99999C11.5 8.26521 11.6054 8.51956 11.7929 8.7071C11.9804 8.89464 12.2348 8.99999 12.5 8.99999C12.7652 8.99999 13.0196 8.89464 13.2071 8.7071C13.3946 8.51956 13.5 8.26521 13.5 7.99999C13.5012 7.27764 13.3596 6.56218 13.0833 5.89475C12.807 5.22733 12.4014 4.62112 11.89 4.11099ZM10 7.99999C10 7.46956 9.78929 6.96085 9.41422 6.58578C9.03914 6.21071 8.53044 5.99999 8 5.99999C7.46957 5.99999 6.96086 6.21071 6.58579 6.58578C6.21072 6.96085 6 7.46956 6 7.99999C6 8.53043 6.21072 9.03913 6.58579 9.41421C6.96086 9.78928 7.46957 9.99999 8 9.99999C8.53044 9.99999 9.03914 9.78928 9.41422 9.41421C9.78929 9.03913 10 8.53043 10 7.99999Z" fill="currentColor"/>
</svg>
