<svg width="59" height="75" viewBox="0 0 59 75" fill="none" xmlns="http://www.w3.org/2000/svg">
<g clip-path="url(#clip0_1898_458)">
<path fill-rule="evenodd" clip-rule="evenodd" d="M51.7377 48.5528C51.3555 48.2453 51.3809 47.8098 51.2788 47.4C51.0494 46.3497 50.8713 45.2993 50.7692 44.2234C50.6165 42.9426 50.2083 41.7129 50.4124 40.3808C50.4631 39.9966 50.1829 39.5867 50.2336 39.2025C50.3103 38.3314 50.1062 37.5117 50.0555 36.6663C50.0302 36.3589 50.0809 36.0515 50.0555 35.7441C49.9788 34.9243 50.2083 34.1046 50.0302 33.2849C49.9281 32.7725 50.0302 32.2089 50.0555 31.671C50.0555 31.0049 50.0555 30.3389 50.0555 29.6215C50.387 29.724 50.7179 29.8009 51.0494 29.8778C51.0748 29.8265 51.0748 29.7753 51.1007 29.7497C50.8966 29.6472 50.6925 29.5447 50.4891 29.4935C50.2596 29.4167 50.1322 29.3398 50.1829 29.0068C50.2336 28.725 50.1062 28.4176 50.0302 28.1101C49.9535 27.8027 50.0809 27.6746 50.4124 27.649C50.6165 27.649 50.7946 27.5722 50.9987 27.4185C50.7439 27.3673 50.4631 27.316 50.1829 27.2648C50.1576 27.1623 50.1829 26.983 50.1062 26.9318C50.0048 26.8805 49.724 26.8549 49.6987 26.9318C49.4946 27.316 49.3165 27.7259 49.1637 28.1357C49.1377 28.2126 49.087 28.2895 49.1124 28.3663C49.1377 28.6481 49.2911 28.9555 48.7555 28.9299C48.6535 28.9299 48.45 29.3398 48.3987 29.5959C48.3226 29.9034 48.0164 31.0561 47.889 31.2867C47.8124 31.3892 47.8123 31.5172 47.7363 31.6453C47.6342 31.7991 47.5068 31.9527 47.3027 32.1833C47.2774 32.6188 46.9205 33.0286 46.6144 33.4898C46.5637 33.5666 46.4363 33.6179 46.4363 33.6947C46.3856 34.5913 45.6205 35.0781 45.2383 35.7954C44.9581 36.3077 44.6773 36.82 44.3718 37.3068C43.9896 37.9216 43.5814 38.5364 43.1739 39.1512C43.0718 39.3305 43.0211 39.5098 42.8677 39.8685C42.7916 39.6636 42.7657 39.5355 42.715 39.3817C42.6642 39.4074 42.6129 39.433 42.5622 39.4586C42.817 40.2528 42.18 40.7139 41.8485 41.2518C41.3642 42.046 40.7779 42.8145 40.1155 43.4549C39.7587 43.8135 39.3759 44.3771 38.6881 44.249C38.382 44.787 38.0251 44.9151 37.4902 44.5821C37.082 44.3259 36.7251 43.9929 36.3683 43.6599C36.3175 43.6086 36.3429 43.4549 36.3175 43.3524C36.2922 43.2243 36.2409 43.0963 36.1901 42.9682C36.1648 42.8913 36.0627 42.8401 36.0627 42.7632C36.0881 42.3277 36.1135 41.8922 36.1648 41.4568C36.1648 41.3543 36.2409 41.2006 36.1901 41.1238C35.7312 40.3552 35.91 39.4842 35.7826 38.6901C35.7059 38.1265 35.91 37.5117 35.9607 36.9225C36.0374 36.0259 36.1901 35.1293 36.0114 34.2071C35.9353 33.7716 36.1135 33.2849 36.1648 32.8238C36.1901 32.6188 36.1394 32.4395 36.1394 32.2345C36.0627 32.2345 35.9861 32.2345 35.9353 32.2345C35.8333 32.7213 35.7312 33.1824 35.6292 33.6691C35.6038 33.7203 35.6292 33.7972 35.6038 33.8484C35.3744 34.2583 35.0942 34.6169 35.0689 35.1293C35.0429 35.3598 34.9155 35.616 34.5586 35.5904C34.4572 35.5904 34.3552 35.821 34.2531 35.949C33.7942 36.3845 33.3353 36.2309 32.9277 35.949C33.0044 35.6929 33.0805 35.4367 33.1572 35.1805C34.2018 34.3096 34.3038 33.003 34.5333 31.7734C34.5333 31.7222 34.5333 31.6453 34.5586 31.6197C35.0689 31.1586 34.9415 30.4669 35.1963 29.9034C35.2216 29.8521 35.2983 29.8009 35.349 29.7497C35.4257 29.6472 35.6038 29.5191 35.5785 29.4166C35.5531 28.6737 36.0114 28.1614 36.3429 27.5978C36.547 27.2135 36.6744 26.8037 36.8272 26.3682C37.082 25.6509 37.3368 24.9336 37.5662 24.2163C37.6936 23.832 37.745 23.4222 37.847 23.0379C37.9998 22.3975 38.2039 21.7826 38.3566 21.1422C38.4073 20.9117 38.3566 20.6811 38.3566 20.4506C38.5094 20.3737 38.6368 20.3225 38.8662 20.22C38.2799 19.9382 38.4587 19.5284 38.5861 19.1697C38.6621 18.9391 38.7388 18.7086 38.8155 18.5037C38.9176 18.2219 39.045 17.9401 39.0957 17.6327C39.1724 17.2996 39.1464 16.9666 39.2231 16.6336C39.4018 15.8907 39.6053 15.1734 39.8094 14.4305C39.9115 14.0462 39.9875 13.662 40.1409 13.3033C40.2429 13.0472 40.3444 12.7142 40.7779 12.791C40.9053 12.8166 41.0581 12.7654 41.1855 12.7654C41.8738 12.791 41.7718 12.8166 41.8992 13.4826C42.0526 14.3792 41.5937 15.1222 41.4916 15.9419C41.3896 16.5824 41.2368 17.1972 41.0841 17.812C41.0327 17.9913 40.9307 18.1706 40.88 18.3499C40.7779 18.7854 40.7272 19.2209 40.6252 19.6564C40.4718 20.2968 40.2937 20.9117 40.1409 21.5521C39.9875 22.2181 39.8601 22.9098 39.7074 23.5759C39.6307 23.8833 39.5033 24.1907 39.4272 24.4725C39.3251 24.8055 39.2485 25.1385 39.1464 25.4716C39.019 25.9327 38.8916 26.3682 38.7388 26.8037C38.6368 27.0598 38.7902 27.4185 38.4073 27.5466C38.382 27.5466 38.382 27.7771 38.4073 27.854C38.5861 28.2638 38.4333 28.5968 38.1779 28.8018C38.1779 29.1604 38.1779 29.4679 38.1779 29.7753C37.7957 29.7497 37.6176 29.9802 37.7703 30.3133C37.9491 30.6975 37.7703 30.8768 37.4648 31.0817C38.1779 31.3636 37.745 31.9271 37.745 32.3626C37.745 32.875 37.6429 33.3617 37.5922 33.874C37.5662 34.0021 37.5922 34.1815 37.5409 34.2327C37.2861 34.3864 37.1587 34.4888 37.5409 34.6426C37.5922 34.6682 37.5922 34.7707 37.5922 34.8475C37.5922 35.4623 37.5922 36.0771 37.5922 36.7176C37.3628 36.692 37.2607 36.692 37.0313 36.6663C37.2094 36.9225 37.3368 37.1018 37.4902 37.2812C37.3881 37.358 37.2607 37.4348 37.1079 37.5373C37.1079 37.5629 37.1333 37.5885 37.1333 37.6142C37.2607 37.5885 37.3628 37.5373 37.5409 37.4861C37.5409 38.1521 37.5409 38.7926 37.5409 39.433C37.5409 39.5098 37.5662 39.5611 37.5409 39.638C37.3368 40.2528 37.5155 40.8419 37.6936 41.4311C37.7957 41.8154 37.7957 42.2253 37.8977 42.6096C37.9491 42.7632 38.0765 42.9426 38.2039 43.0451C38.2799 43.0963 38.484 42.9682 38.5861 42.8657C39.1977 42.1485 39.8094 41.4311 40.3957 40.7139C40.4978 40.5858 40.4978 40.3552 40.5998 40.2528C40.8033 39.9197 41.0074 39.5867 41.2115 39.2793C41.3129 39.1 41.4149 38.9206 41.5423 38.7413C41.8485 38.2802 42.154 37.8191 42.4602 37.3836C42.715 37.025 42.9951 36.692 43.3013 36.3077C43.352 36.2052 43.378 36.0003 43.4794 35.8722C43.7855 35.4623 44.1677 35.1293 44.4479 34.6938C44.5759 34.4888 44.5246 34.1815 44.5499 33.874C44.8814 33.8228 45.0855 33.6179 45.0855 33.208C45.0855 33.1055 45.1876 32.9774 45.2636 32.875C45.5951 32.3114 45.9267 31.7478 46.2575 31.1842C46.589 30.595 46.9205 30.0314 47.2007 29.4166C47.4048 29.0324 47.5322 28.5968 47.7109 28.2126C48.0418 27.5209 48.3987 26.8549 48.7048 26.1376C48.9083 25.6252 49.0363 25.0617 49.2398 24.5237C49.3672 24.2163 49.5713 23.9345 49.7494 23.6527C49.7754 23.6015 49.8514 23.5247 49.8514 23.4991C49.5966 23.0123 50.0048 22.7305 50.1322 22.3719C50.285 21.962 50.285 21.4753 50.5144 21.1166C50.8459 20.6043 50.6672 19.9895 50.8713 19.5027C51.2022 18.683 51.2022 17.8632 51.3302 17.0179C51.4576 16.1213 51.5337 15.2247 51.7124 14.328C51.8144 13.7645 52.0692 13.2009 52.1967 12.8166C52.2987 12.3043 52.3494 11.9456 52.4261 11.587C52.5022 11.2796 52.5789 10.9465 52.757 10.716C52.8844 10.5623 53.2159 10.5366 53.522 10.4342C53.3946 10.3061 53.1905 10.1524 52.9357 9.89624C53.1138 9.43513 53.3179 8.89715 53.522 8.35917C53.5727 8.2567 53.6241 8.15429 53.6494 8.05181C53.7768 7.48823 53.8529 6.92462 54.0316 6.36105C54.3118 5.54129 54.6433 4.72153 55.0002 3.90178C55.0768 3.72246 55.3317 3.62 55.5865 3.41506C55.4337 2.39036 55.918 1.57061 56.8605 0.930176C56.9372 0.955793 57.0139 0.981407 57.09 1.00702C57.7016 1.08388 58.1352 1.2632 57.7783 2.0061C57.7529 2.05734 57.8804 2.15981 57.8804 2.23666C57.9311 2.4416 58.0331 2.72339 57.957 2.85147C57.6763 3.31259 57.6002 3.79931 57.5742 4.33727C57.5742 4.54221 57.2433 4.74716 57.1413 4.95209C57.0899 5.36197 57.0392 5.77185 56.9625 6.15611C56.9625 6.18172 56.7077 6.18172 56.6057 6.18172C56.9118 6.61722 56.8351 7.33448 56.4783 7.92367C56.3509 8.15429 56.3255 8.43605 56.2488 8.6922C56.1981 8.84595 56.2235 9.05084 56.1474 9.15331C55.8413 9.43513 55.8666 9.84497 55.7646 10.178C55.6372 10.5879 55.3824 10.9721 55.2296 11.3052C54.9494 11.382 54.72 11.4332 54.5159 11.4845C54.5666 11.6382 54.5926 11.7663 54.6433 11.8944C54.7707 11.7919 54.8474 11.7151 54.9235 11.6638C54.9748 11.7663 55.0768 11.8944 55.0509 11.9712C54.9235 12.4067 54.9748 12.919 54.5159 13.2521C54.4392 13.3033 54.4905 13.5595 54.3885 13.7389C54.3631 13.9438 54.3118 14.1231 54.2864 14.328C54.2611 14.5073 54.2865 14.7891 54.1844 14.8404C53.8529 15.0197 53.9296 15.3015 53.8529 15.5833C53.7768 15.9932 53.5474 16.3518 53.3946 16.7361C53.3433 16.8385 53.3179 16.9666 53.2672 17.0947C53.2159 17.2996 53.1652 17.5046 53.0885 17.6839C53.0631 18.0169 53.0885 18.3755 52.9864 18.683C52.8083 19.3234 52.4515 19.9382 52.3494 20.6043C52.1453 21.757 51.7124 22.8842 51.8398 24.0882C51.8905 24.8055 51.7631 25.5228 51.7124 26.2401C51.7124 26.3426 51.6357 26.4707 51.5337 26.5219C51.0494 26.7524 51.1261 26.983 51.5083 27.2391C51.559 27.2648 51.585 27.3416 51.6357 27.4185C51.2535 27.649 51.3042 27.9309 51.4316 28.3151C51.585 28.7506 51.559 29.2629 51.6103 29.7497C51.6357 29.9546 51.6357 30.1595 51.585 30.3645C51.559 30.5182 51.4576 30.6462 51.3809 30.8256C52.0433 31.133 51.4316 31.7222 51.6103 32.2089C51.6357 32.3114 51.6103 32.4395 51.6103 32.5675C51.6103 32.8238 51.6357 33.0543 51.6357 33.3105C51.6357 33.8741 51.6357 34.4376 51.6357 35.0012C51.6357 35.4623 51.585 35.8978 51.585 36.3589C51.585 36.487 51.6357 36.6407 51.687 36.7688C51.7377 36.9481 51.7885 37.1018 51.7885 37.2812C51.8144 37.9984 51.8144 38.7414 51.8652 39.4586C51.9418 40.637 52.0433 41.7898 52.1453 42.9682C52.1713 43.1219 52.2474 43.2756 52.2474 43.4293C52.2727 43.583 52.2474 43.7111 52.2474 43.8648C52.2474 43.9673 52.2727 44.0698 52.2987 44.1722C52.4001 44.7614 52.5275 45.325 52.6042 45.9142C52.6296 46.1191 52.5275 46.324 52.4515 46.6059C52.7063 46.7339 52.783 46.9133 52.757 47.3231C52.7316 47.6305 53.0124 48.0148 53.0631 48.4247C53.1652 48.9627 53.3433 49.5006 53.42 50.0642C53.4707 50.4741 53.42 50.884 53.42 51.2938C53.6241 51.7037 53.8275 52.1135 54.0316 52.549C53.9549 52.6771 53.8529 52.8309 53.8275 52.8821C54.0063 53.0614 54.1844 53.1639 54.2357 53.292C54.3631 53.6762 54.4392 54.0605 54.5413 54.4704C54.4652 54.6497 54.3118 54.9059 54.2357 55.162C54.2098 55.2645 54.2864 55.4694 54.3885 55.5206C54.8727 55.8537 55.0002 56.3661 55.2296 56.8528C55.255 56.9296 55.3063 57.0321 55.2803 57.0833C54.9235 57.5188 55.2803 57.6213 55.6118 57.7494C55.4337 58.2105 55.4337 58.6204 55.918 58.9022C55.994 58.9534 56.0194 59.1071 56.0454 59.2096C56.1728 59.6194 56.3002 60.0549 56.4276 60.4648C56.4783 60.5929 56.4783 60.7466 56.4529 60.9259C56.1214 60.721 55.7646 60.6185 55.6625 60.1574C55.6118 59.9012 55.3063 59.6963 55.1783 59.4401C54.9235 58.8509 54.72 58.2105 54.4905 57.6213C54.3631 57.2627 54.159 56.9296 54.0316 56.5709C53.8529 56.1355 53.7001 55.6744 53.5474 55.2133C53.3946 54.7778 53.2159 54.3423 53.0631 53.9068C53.0124 53.7531 52.9357 53.5737 52.8844 53.3945C52.783 53.1126 52.6042 52.8309 52.6042 52.549C52.6556 52.0111 52.3748 51.6268 52.222 51.1657C51.9926 50.4997 51.8905 49.808 51.7631 49.1163C51.7377 48.9883 51.7885 48.8345 51.7885 48.6808C51.6357 48.5784 51.687 48.5784 51.7377 48.5528ZM54.4392 10.178C54.4138 10.2293 54.3885 10.2805 54.3631 10.3317C54.5413 10.4342 54.72 10.5623 54.8728 10.6648C54.9494 10.511 55.0255 10.3574 55.1276 10.1268C54.822 10.1268 54.6433 10.1524 54.4392 10.178Z" fill="currentColor"/>
<path fill-rule="evenodd" clip-rule="evenodd" d="M34.4058 21.9364C34.3548 22.372 34.3038 22.6793 34.2783 22.9867C34.2019 23.7809 34.0999 24.575 34.0235 25.3692C34.0235 25.446 34.0235 25.5228 33.9725 25.5997C33.5647 26.5219 33.7176 27.4698 33.845 28.4176C33.8706 28.5457 33.845 28.6738 33.845 28.7763C33.845 29.2118 33.8196 29.6473 33.845 30.1084C33.8706 30.9537 33.9215 31.8247 33.9725 32.6701C34.0235 33.5924 34.1 34.4889 34.1254 35.4112C34.1254 35.7441 34.0489 36.0772 33.998 36.359C34.0489 36.6664 34.1509 36.9482 34.1509 37.2299C34.1764 38.1522 34.1509 39.0744 34.2274 39.9967C34.2529 40.5346 34.4058 41.047 34.4822 41.5849C34.5333 41.8411 34.5332 42.1229 34.5587 42.4047C34.5842 43.0707 34.6352 43.7112 34.6607 44.3772C34.6607 44.4541 34.6861 44.5565 34.6607 44.6077C34.4313 45.1713 34.5842 45.7093 34.6861 46.2729C34.7626 46.7596 34.8136 47.272 34.8391 47.7843C34.8391 47.8612 34.7116 47.9636 34.6861 47.9892C34.7626 48.5528 34.8646 49.0139 34.9155 49.5007C34.9665 50.013 34.941 50.5254 34.9665 51.0377C34.992 51.8831 35.043 52.7285 35.043 53.5738C35.043 54.5217 34.9665 55.4695 34.941 56.4173C34.941 56.776 34.9665 57.109 34.941 57.4677C34.8646 58.2362 34.7116 59.0303 34.7116 59.7988C34.7116 60.3368 34.5332 60.721 34.2783 61.1565C34.0235 61.5921 34.1 62.1812 33.947 62.6936C33.8196 63.1545 33.7686 63.6926 33.3098 63.8209C33.2589 64.2307 33.2589 64.5636 33.1824 64.9225C33.0295 65.6138 32.851 66.2802 32.6217 66.946C32.4432 67.4587 32.2138 67.9453 31.9844 68.432C31.7551 68.9186 31.5257 69.4053 31.2198 69.8665C30.9394 70.3017 30.6081 70.7121 30.2258 71.0958C29.6651 71.634 29.0534 72.1466 28.4416 72.6587C27.8299 73.1708 27.1927 73.5812 26.3771 73.6835C25.5615 73.8118 24.7714 74.0678 23.9558 74.2216C23.4715 74.2984 22.9617 74.2984 22.4775 74.2724C22.35 74.2724 22.2226 74.1187 22.2226 74.1187C21.8148 74.1187 21.5344 74.1187 21.2541 74.1187C20.8208 74.1187 20.4639 74.0164 20.0561 73.8118C19.6993 73.632 19.3425 73.0945 18.7563 73.376C18.6288 73.4274 18.3485 73.1199 18.0936 72.9662C17.8642 73.2476 17.5583 72.9408 17.278 72.8125C17.125 72.761 16.9466 72.761 16.7937 72.7102C16.4368 72.6073 16.08 72.4795 15.7232 72.3766C15.3154 72.2489 14.8311 72.2235 14.5253 71.9669C14.1429 71.6594 13.4293 71.5825 13.5312 70.8398C13.5312 70.8144 13.4803 70.8144 13.4038 70.7629C13.3528 70.8913 13.3018 71.019 13.1999 71.2242C13.0215 71.019 12.7921 70.8913 12.7411 70.6861C12.6137 70.2509 12.3588 70.2509 12.0019 70.3278C11.798 70.3786 11.3902 70.2763 11.3647 70.174C11.2119 69.6874 10.7786 69.7642 10.4981 69.6105C10.4217 69.5076 10.3707 69.3538 10.2943 69.2515C10.1923 69.1493 9.98841 69.0978 9.91196 68.9701C9.70805 68.6366 9.47867 68.4828 9.07085 68.5857C8.99441 68.6111 8.84146 68.4574 8.76502 68.3297C8.51009 67.9193 8.48461 67.3049 7.87294 67.1512C6.77696 66.8691 6.2162 65.8444 5.34962 65.2294C5.12023 65.0502 4.94182 64.7688 4.78889 64.5121C4.73792 64.4353 4.83986 64.2561 4.89084 64.1284C3.82035 63.718 3.71839 63.5649 4.10072 62.9499C3.61645 63.0007 3.43803 62.6936 3.31059 62.3093C3.25962 62.1556 3.03023 62.0532 2.90279 61.9251C2.80083 61.8482 2.69888 61.7457 2.6479 61.6433C2.31657 60.9773 2.01071 60.3112 1.73035 59.6451C1.42449 58.9022 0.965709 58.1337 0.889248 57.3652C0.838268 56.6992 0.532415 56.238 0.379489 55.6489C0.379489 55.6232 0.353999 55.6232 0.353999 55.5976C0.557902 54.9059 0.0991196 54.3423 0.0226559 53.7019C0.0226559 53.6251 -0.0283198 53.5226 0.0226559 53.4714C0.379486 53.0102 0.0736339 52.5235 0.12461 52.0112C0.150097 52.0112 0.201073 51.9855 0.252049 51.9599C0.940222 51.8831 0.940222 51.8831 0.736314 52.6004C0.68534 52.7541 0.710827 52.9334 0.736314 53.0871C0.863755 53.9068 0.914735 54.7522 1.22059 55.4951C1.39901 55.9306 1.27157 56.3405 1.39901 56.7248C1.44998 56.9041 1.67937 57.0578 1.85778 57.2115C2.06169 57.3652 2.34206 57.4677 2.0362 57.8007C1.98523 57.8519 1.98523 58.0313 2.0362 58.1337C2.29108 58.5692 2.16364 59.2608 2.8773 59.4146C2.97925 59.4402 3.03023 59.6195 3.10669 59.722C3.03023 59.7732 2.95377 59.7988 2.8773 59.8501C2.90279 59.9013 2.90279 59.9269 2.90279 59.9526C3.2851 60.2599 3.48901 60.6186 3.59096 61.1309C3.64193 61.4384 4.02425 61.6689 4.25365 61.9507C4.33011 62.0276 4.50852 62.0276 4.53401 62.1044C4.7634 62.8985 5.47706 63.3082 5.96133 63.9232C6.06328 64.0515 6.19072 64.2307 6.2162 64.3844C6.26716 65.0502 6.87888 65.1531 7.23574 65.4861C7.43965 65.6652 7.59253 65.8704 7.77096 66.075C7.89842 66.2287 7.97487 66.4594 8.12781 66.5362C9.17277 66.9206 9.93744 67.7147 10.8295 68.3551C11.2883 68.6626 11.7471 68.9441 12.2313 69.2261C13.1744 69.7642 14.092 70.2763 15.035 70.7884C15.2389 70.8913 15.4428 70.9681 15.6467 71.0704C16.3349 71.3779 16.9976 71.7362 17.6858 71.9929C18.3739 72.2489 19.0876 72.4027 19.7757 72.6073C19.9287 72.6587 20.0816 72.8125 20.2345 72.8639C20.5914 72.9662 20.9482 73.0431 21.3305 73.1199C21.5854 73.1708 21.8402 73.1708 22.0952 73.1708C22.4265 73.1708 22.7833 73.1454 23.1147 73.0945C23.6244 73.0431 24.1342 72.9916 24.6439 72.8893C25.0772 72.8125 25.5105 72.7102 25.8929 72.5304C26.4536 72.2743 27.1163 72.0437 27.5241 71.6085C28.2377 70.7884 29.2573 70.2763 29.7415 69.2515C29.9454 68.8163 30.3278 68.4828 30.5317 68.073C30.7611 67.5864 30.863 67.0483 31.0414 66.5616C31.2963 65.819 31.6021 65.1271 31.8315 64.3844C32.0099 63.744 32.1119 63.0776 32.2648 62.4118C32.3413 62.1044 32.4687 61.797 32.5452 61.464C32.6981 60.8748 32.8256 60.2855 32.953 59.6964C33.004 59.4658 32.9784 59.2096 33.004 58.9535C33.0804 58.3643 33.2079 57.775 33.2843 57.1859C33.7941 57.1603 33.845 57.0834 33.7176 56.5967C33.6412 56.6479 33.5647 56.6992 33.4882 56.7248C33.4117 56.7504 33.2843 56.776 33.2334 56.7504C33.1824 56.7248 33.1569 56.5967 33.1824 56.4942C33.2334 55.905 33.3098 55.3158 33.3353 54.7522C33.3863 53.8812 33.4882 53.0102 33.4117 52.1393C33.3863 51.7294 33.3608 51.3195 33.3353 50.9096C33.3098 50.2436 33.2589 49.5775 33.2334 48.9115C33.2079 48.2198 33.2079 47.5281 33.1824 46.8621C33.1569 46.5034 33.1824 46.1704 33.0549 45.8118C32.9275 45.4531 33.1059 44.992 33.1569 44.5053C33.4117 44.6077 33.5647 44.659 33.7176 44.7359C32.7491 44.1723 32.7491 43.3782 33.1059 42.4047C32.4942 41.9948 32.953 41.38 32.8765 40.842C32.7746 40.2016 32.851 39.5099 32.8001 38.8439C32.7746 38.5621 32.6471 38.2803 32.6217 37.9985C32.5962 37.8192 32.6981 37.6398 32.7746 37.3837C32.3923 37.2043 32.3413 36.8713 32.4942 36.359C32.5962 35.9747 32.4432 35.5136 32.3923 35.0782C32.3413 34.5658 32.3158 34.0535 32.2903 33.5411C32.2903 33.4642 32.2648 33.3617 32.2903 33.3105C32.6726 32.7469 32.4432 32.209 32.3413 31.6454C32.2393 30.9794 32.2903 30.2877 32.2648 29.596C32.2648 29.4423 32.1884 29.3142 32.1629 29.1862C32.1119 29.1862 32.0609 29.1606 32.0099 29.1606C31.8315 29.5448 31.6531 29.9034 31.4492 30.2877C31.2708 30.6207 31.1179 30.9794 30.9139 31.3124C30.4806 32.0041 30.0219 32.6701 29.5631 33.3361C29.2063 33.8229 28.8749 34.3096 28.4671 34.7707C27.8044 35.5649 27.0908 36.3077 26.4026 37.0763C26.3262 37.1531 26.1732 37.2299 26.0713 37.2299C25.7909 37.2043 25.587 37.2043 25.6125 37.563C25.6125 37.6142 25.5615 37.6911 25.5105 37.7167C25.0518 38.0241 24.593 38.3571 24.1342 38.6389C23.5734 38.9464 22.9873 39.2281 22.401 39.5099C21.6109 39.8942 20.7698 39.9454 19.9542 39.6124C19.6229 39.4587 19.5973 39.305 19.8267 39.0488C20.1071 38.7158 20.413 38.5365 20.8717 38.5621C21.356 38.5877 21.8148 38.5365 22.2481 38.1778C22.6559 37.8192 23.1912 37.6655 23.6499 37.3581C24.1342 37.0507 24.6185 36.692 25.0772 36.3334C25.4596 36.0516 25.8418 35.821 26.1732 35.488C26.3771 35.3087 26.479 35.0013 26.632 34.7707C26.7595 34.5914 26.8869 34.4121 27.0398 34.2327C27.2437 33.9766 27.4986 33.746 27.7025 33.4899C27.9828 33.1568 28.2632 32.7982 28.5181 32.4395C28.671 32.209 28.824 31.9784 28.9514 31.7223C29.1298 31.3892 29.2573 31.0562 29.4357 30.7232C29.5631 30.5182 29.818 30.3901 29.9199 30.1852C30.0984 29.8522 30.1748 29.4679 30.3532 29.1349C30.5316 28.8019 30.7865 28.5201 31.0159 28.1871C31.0414 28.1358 31.0669 28.0846 31.0669 28.059C31.0159 27.2649 31.6021 26.6757 31.6786 25.9327C31.6786 25.9071 31.6786 25.9071 31.6786 25.8815C32.1884 25.2923 32.1884 24.5494 32.2648 23.8065C32.2648 23.7553 32.3158 23.6784 32.3158 23.6272C32.3158 23.0892 32.3158 22.5769 32.3158 22.0389C32.3158 21.8084 32.3923 21.6034 32.4177 21.3729C32.4942 20.6299 32.5962 19.8871 32.6726 19.0929C32.902 19.1185 33.1314 19.1185 33.3608 19.1441C32.6217 18.8624 32.9785 18.3757 32.9785 17.8889C32.953 17.1972 33.3353 16.608 33.2334 15.9676C33.2079 15.8395 33.1314 15.7114 33.1059 15.609C33.1824 15.4553 33.3353 15.3272 33.3353 15.1734C33.3098 14.6867 33.6412 14.3537 33.998 14.3793C34.3294 14.405 34.7881 14.6867 34.9665 14.9942C35.1959 15.3784 35.2214 15.8908 35.2979 16.3519C35.3234 16.5312 35.3488 16.7105 35.3234 16.8898C35.3234 17.1972 35.2724 17.479 35.2724 17.7864C35.2469 18.0938 35.2979 18.4269 35.2214 18.7087C35.1704 18.9392 34.941 19.1185 34.7627 19.3491C35.2214 20.2457 34.5332 21.1167 34.5332 22.0645C34.5077 21.8852 34.3548 21.9621 34.4058 21.9364Z" fill="currentColor"/>
<path fill-rule="evenodd" clip-rule="evenodd" d="M34.5763 21.6269C34.5567 21.7343 34.5424 21.8425 34.5364 21.9517C34.5343 21.9892 34.5332 22.0268 34.5332 22.0645C34.5152 21.9378 34.4335 21.939 34.4052 21.9416C34.4054 21.9399 34.4056 21.9382 34.4058 21.9364C34.3984 21.9402 34.3953 21.9417 34.3955 21.9422C34.3956 21.9427 34.3992 21.9421 34.4052 21.9416C34.3994 21.9911 34.3936 22.0389 34.3878 22.0852C34.3877 22.0865 34.3875 22.0877 34.3874 22.089C34.3732 22.2026 34.3593 22.3074 34.3462 22.4062C34.3181 22.6181 34.2936 22.8024 34.2783 22.9867C34.2401 23.3838 34.1955 23.7809 34.1509 24.1779C34.1063 24.575 34.0617 24.9721 34.0235 25.3692C34.0235 25.446 34.0235 25.5228 33.9725 25.5997C33.5826 26.4815 33.7053 27.3868 33.8282 28.293C33.8338 28.3346 33.8395 28.3761 33.845 28.4176C33.8625 28.5052 33.8561 28.5927 33.8503 28.672C33.8476 28.7088 33.845 28.7438 33.845 28.7763C33.845 28.9205 33.8422 29.0647 33.8394 29.2099C33.8337 29.503 33.828 29.8 33.845 30.1084C33.8706 30.9537 33.9215 31.8247 33.9725 32.6701C33.9899 32.9842 34.0102 33.2953 34.0304 33.6055C34.0697 34.2061 34.1086 34.803 34.1254 35.4112C34.1254 35.6872 34.0729 35.9632 34.0259 36.2101C34.0162 36.261 34.0067 36.3108 33.998 36.359C34.0163 36.4692 34.0411 36.5761 34.0654 36.6809C34.109 36.8684 34.1509 37.0492 34.1509 37.2299C34.1594 37.5374 34.1623 37.8448 34.1651 38.1522C34.1707 38.767 34.1764 39.3819 34.2274 39.9967C34.2431 40.3296 34.3077 40.6528 34.3728 40.9783C34.4129 41.1787 34.4531 41.3799 34.4822 41.5849C34.5166 41.7573 34.5278 41.9412 34.5392 42.1289C34.5448 42.2203 34.5504 42.3125 34.5587 42.4047C34.5715 42.7377 34.5906 43.0644 34.6097 43.3911C34.6288 43.7177 34.6479 44.0442 34.6607 44.3772C34.6607 44.4028 34.6635 44.4313 34.6663 44.4598C34.672 44.5167 34.6777 44.5736 34.6607 44.6077C34.4602 45.1002 34.5517 45.573 34.646 46.0605C34.6596 46.131 34.6733 46.2017 34.6861 46.2729C34.7626 46.7596 34.8136 47.272 34.8391 47.7843C34.8391 47.8496 34.747 47.9334 34.7038 47.9728C34.6961 47.9798 34.69 47.9854 34.6861 47.9892C34.7195 48.2351 34.7577 48.4615 34.7944 48.679C34.8419 48.96 34.8868 49.2263 34.9155 49.5007C34.9461 49.8081 34.9492 50.1155 34.9522 50.4229C34.9543 50.6278 34.9563 50.8328 34.9665 51.0377C34.975 51.3191 34.9863 51.6004 34.9976 51.8818C35.0203 52.4458 35.043 53.0098 35.043 53.5738C35.043 54.1425 35.0155 54.7111 34.9879 55.2797C34.9696 55.6589 34.9512 56.0381 34.941 56.4173C34.941 56.5379 34.9439 56.6555 34.9467 56.7722C34.9524 57.0027 34.9579 57.2295 34.941 57.4677C34.9159 57.72 34.8826 57.9752 34.8491 58.2312C34.7806 58.755 34.7116 59.2827 34.7116 59.7988C34.7116 60.3368 34.5332 60.721 34.2783 61.1565C34.1269 61.4153 34.0925 61.7283 34.0574 62.0472C34.0334 62.2651 34.0091 62.4857 33.947 62.6936C33.9269 62.7665 33.9086 62.8413 33.8904 62.9161C33.7932 63.3144 33.6961 63.7129 33.3098 63.8209C33.2907 63.9744 33.2788 64.1172 33.2673 64.2545C33.2481 64.4838 33.2302 64.6981 33.1824 64.9225C33.0295 65.6138 32.851 66.2802 32.6217 66.946C32.4432 67.4587 32.2138 67.9453 31.9844 68.432C31.7551 68.9186 31.5257 69.4053 31.2198 69.8665C30.9394 70.3017 30.6081 70.7121 30.2258 71.0958C29.6651 71.634 29.0533 72.1466 28.4416 72.6587C27.8299 73.1708 27.1927 73.5812 26.3771 73.6835C25.9266 73.7543 25.4839 73.8642 25.0403 73.9742C24.6809 74.0634 24.3209 74.1527 23.9558 74.2216C23.4715 74.2984 22.9617 74.2984 22.4775 74.2724C22.35 74.2724 22.2226 74.1187 22.2226 74.1187H21.2541C20.8208 74.1187 20.4639 74.0164 20.0561 73.8118C19.9618 73.7643 19.8675 73.6917 19.7689 73.616C19.4946 73.4051 19.1875 73.1689 18.7563 73.376C18.6746 73.4089 18.5303 73.2947 18.3701 73.1678C18.2802 73.0966 18.1852 73.0215 18.0936 72.9662C17.9173 73.1825 17.6957 73.0513 17.4753 72.9207C17.409 72.8814 17.3428 72.8421 17.278 72.8125C17.2011 72.7866 17.1177 72.7737 17.0344 72.7609C16.952 72.7481 16.8697 72.7354 16.7937 72.7102C16.6153 72.6587 16.4369 72.6011 16.2584 72.5434C16.08 72.4857 15.9016 72.4281 15.7232 72.3766C15.5985 72.3376 15.4667 72.3081 15.335 72.2787C15.036 72.2118 14.7376 72.1451 14.5253 71.9669C14.4221 71.8839 14.2948 71.8177 14.1659 71.7507C13.8549 71.589 13.5346 71.4225 13.5218 71.0037C13.5202 70.953 13.5232 70.8985 13.5312 70.8398C13.5312 70.8261 13.5165 70.8198 13.4909 70.8089C13.469 70.7995 13.4391 70.7867 13.4038 70.7629C13.3963 70.7816 13.3889 70.8003 13.3813 70.8192C13.3786 70.8261 13.3758 70.8329 13.373 70.8398C13.364 70.8622 13.3546 70.8851 13.3447 70.9088C13.339 70.9225 13.3331 70.9364 13.327 70.9507C13.3252 70.955 13.3233 70.9592 13.3215 70.9635C13.3123 70.9847 13.3027 71.0066 13.2923 71.0295C13.2665 71.0868 13.2365 71.1505 13.1999 71.2242C13.1524 71.1695 13.1013 71.1204 13.0509 71.0738C13.0369 71.0609 13.0229 71.0481 13.0091 71.0355C12.886 70.9231 12.7748 70.8214 12.7411 70.6861C12.6137 70.2509 12.3588 70.2509 12.0019 70.3278C11.798 70.3786 11.3902 70.2763 11.3647 70.174C11.2574 69.8325 11.012 69.7685 10.7783 69.7076C10.679 69.6817 10.5818 69.6563 10.4981 69.6105C10.46 69.5592 10.4283 69.4953 10.3965 69.4314C10.3646 69.3671 10.3326 69.3028 10.2943 69.2515C10.2512 69.2084 10.19 69.1742 10.1279 69.1396C10.0428 69.0922 9.95613 69.0439 9.91196 68.9701C9.70805 68.6366 9.47867 68.4828 9.07085 68.5857C8.99441 68.6111 8.84146 68.4574 8.76502 68.3297C8.69169 68.2117 8.63735 68.0767 8.58257 67.9408C8.44693 67.604 8.30867 67.2607 7.87294 67.1512C7.17039 66.9704 6.68777 66.4844 6.20354 65.9968C5.93237 65.7237 5.6607 65.4502 5.34962 65.2294C5.12023 65.0502 4.94182 64.7688 4.78889 64.5121C4.76017 64.4688 4.77999 64.3931 4.81189 64.3123C4.82487 64.2794 4.83986 64.2457 4.85439 64.2131C4.86751 64.1836 4.88026 64.1549 4.89083 64.1284C4.89082 64.1284 4.89083 64.1284 4.89083 64.1284C4.82512 64.1032 4.76308 64.079 4.70456 64.0556C3.92572 63.7439 3.77336 63.5745 3.9835 63.1553C4.01481 63.0928 4.05418 63.0248 4.10072 62.9499C4.01478 62.9589 3.93847 62.9567 3.87037 62.9447C3.55473 62.8893 3.41542 62.6254 3.31059 62.3093C3.27773 62.2102 3.17072 62.1324 3.06468 62.0554C3.00623 62.0129 2.94807 61.9706 2.90279 61.9251C2.80083 61.8482 2.69888 61.7457 2.6479 61.6433C2.31657 60.9773 2.01071 60.3112 1.73035 59.6451C1.6479 59.4449 1.55435 59.2428 1.46016 59.0393C1.20494 58.4879 0.945098 57.9265 0.889248 57.3652C0.857503 56.9505 0.726936 56.6152 0.596003 56.279C0.516663 56.0752 0.43719 55.8712 0.379488 55.6489C0.379488 55.636 0.373108 55.6296 0.366731 55.6232C0.360363 55.6168 0.353999 55.6104 0.353999 55.5976C0.483183 55.1594 0.346367 54.7726 0.209305 54.3851C0.130031 54.161 0.0506748 53.9366 0.0226555 53.7019C0.0226555 53.6763 0.0169904 53.6478 0.0113258 53.6194C-4.2282e-07 53.5624 -0.0113267 53.5055 0.0226555 53.4714C0.253256 53.1734 0.207097 52.8647 0.159339 52.5453C0.133197 52.3705 0.106576 52.1924 0.124609 52.0112C0.149976 52.0112 0.200592 51.9858 0.251326 51.9603C0.587863 51.9227 0.760546 51.9031 0.824565 51.9772C0.891457 52.0546 0.840505 52.2338 0.736314 52.6004C0.68534 52.7541 0.710827 52.9334 0.736314 53.0871C0.765532 53.275 0.790731 53.4643 0.815904 53.6534C0.900528 54.2891 0.984858 54.9226 1.22059 55.4951C1.31768 55.7321 1.3242 55.9615 1.3305 56.1833C1.33578 56.3691 1.34091 56.5496 1.39901 56.7248C1.44002 56.869 1.59653 56.9967 1.74906 57.1212C1.78611 57.1514 1.82292 57.1814 1.85778 57.2115C1.88652 57.2331 1.91677 57.2538 1.94669 57.2742C2.12907 57.3987 2.29895 57.5146 2.0362 57.8007C1.98522 57.8519 1.98522 58.0313 2.0362 58.1337C2.11622 58.2704 2.15856 58.4324 2.20107 58.5951C2.29397 58.9505 2.3877 59.3091 2.8773 59.4146C2.94527 59.4317 2.99058 59.5171 3.03589 59.6025C3.05074 59.6304 3.06558 59.6584 3.08121 59.684C3.08945 59.6974 3.0979 59.7102 3.10669 59.722C3.0685 59.7476 3.03031 59.7668 2.99213 59.786C2.97137 59.7964 2.95061 59.8068 2.92985 59.8183C2.91233 59.828 2.89481 59.8384 2.8773 59.8501C2.90279 59.9013 2.90279 59.9269 2.90279 59.9526C3.2851 60.2599 3.48901 60.6186 3.59096 61.1309C3.6249 61.3356 3.80573 61.5062 3.99051 61.6806C4.08325 61.7681 4.17699 61.8565 4.25364 61.9507C4.28917 61.9864 4.3467 62.0055 4.40068 62.0235C4.46288 62.0441 4.52037 62.0632 4.53401 62.1044C4.68686 62.6335 5.05473 62.992 5.42648 63.3543C5.61263 63.5357 5.79975 63.718 5.96133 63.9232C6.06328 64.0515 6.19072 64.2307 6.2162 64.3844C6.25194 64.8514 6.56346 65.0414 6.86946 65.2282C6.9998 65.3077 7.12914 65.3866 7.23574 65.4861C7.38593 65.618 7.50844 65.7641 7.63386 65.9137C7.67872 65.9672 7.72395 66.0211 7.77096 66.075C7.81753 66.1312 7.8573 66.1976 7.89647 66.2631C7.9645 66.3767 8.03075 66.4874 8.12781 66.5362C8.87248 66.8101 9.4748 67.2921 10.0823 67.7783C10.3273 67.9744 10.5732 68.1711 10.8295 68.3551C11.2883 68.6626 11.7471 68.9441 12.2313 69.2261C13.1744 69.7642 14.092 70.2763 15.035 70.7884C15.1382 70.8404 15.2414 70.8858 15.3446 70.9313C15.4453 70.9756 15.546 71.0199 15.6467 71.0704C15.892 71.18 16.134 71.296 16.375 71.4116C16.8104 71.6204 17.2428 71.8277 17.6858 71.9929C18.136 72.1604 18.5971 72.2841 19.0549 72.407C19.2968 72.4719 19.5378 72.5365 19.7757 72.6073C19.8522 72.633 19.9287 72.6843 20.0052 72.7356C20.0817 72.7869 20.1581 72.8382 20.2345 72.8639C20.5914 72.9662 20.9482 73.0431 21.3305 73.1199C21.5854 73.1708 21.8402 73.1708 22.0952 73.1708C22.4265 73.1708 22.7833 73.1454 23.1147 73.0945C23.6243 73.0431 24.1343 72.9916 24.6439 72.8893C25.0772 72.8125 25.5105 72.7102 25.8929 72.5304C25.9944 72.484 26.0992 72.4385 26.2053 72.3924C26.6852 72.1841 27.1901 71.9649 27.5241 71.6085C27.788 71.3052 28.0939 71.0439 28.399 70.7833C28.9187 70.3394 29.4364 69.8972 29.7415 69.2515C29.8475 69.0253 30.0018 68.8265 30.1541 68.6302C30.2948 68.4489 30.4338 68.2698 30.5317 68.073C30.6713 67.7768 30.7637 67.4614 30.8549 67.1502C30.9135 66.9502 30.9716 66.752 31.0414 66.5616C31.1493 66.2472 31.2664 65.9418 31.3829 65.6379C31.5416 65.224 31.6992 64.8126 31.8315 64.3844C31.9413 63.9903 32.0222 63.5863 32.1038 63.1787C32.1547 62.924 32.206 62.6678 32.2648 62.4118C32.3002 62.2697 32.3464 62.1276 32.3934 61.983C32.4482 61.8148 32.5041 61.6431 32.5452 61.464C32.6981 60.8748 32.8256 60.2855 32.953 59.6964C32.9836 59.5577 32.9866 59.4098 32.9897 59.2582C32.9917 59.1577 32.9938 59.0556 33.004 58.9535C33.0422 58.6589 33.0932 58.3643 33.1442 58.0697C33.1951 57.7751 33.2461 57.4805 33.2843 57.1859C33.7101 57.1645 33.8158 57.1073 33.7648 56.8054C33.7547 56.7459 33.7386 56.6768 33.7176 56.5967C33.6581 56.6366 33.5983 56.6766 33.5387 56.7044C33.5219 56.7122 33.5051 56.7191 33.4882 56.7248C33.4117 56.7504 33.2843 56.776 33.2334 56.7504C33.1824 56.7248 33.1569 56.5967 33.1824 56.4942C33.1999 56.2912 33.2205 56.0882 33.241 55.8863C33.28 55.5021 33.3186 55.1217 33.3353 54.7522C33.3466 54.5586 33.3605 54.365 33.3743 54.1713C33.4228 53.4939 33.4712 52.8166 33.4117 52.1393L33.3353 50.9096C33.3226 50.5766 33.3034 50.2436 33.2843 49.9105C33.2652 49.5775 33.2461 49.2445 33.2334 48.9115C33.2208 48.5692 33.2144 48.227 33.2081 47.8878C33.2016 47.5416 33.1953 47.1986 33.1824 46.8621C33.176 46.7732 33.1729 46.686 33.1697 46.5995C33.1601 46.3369 33.1508 46.0816 33.0549 45.8118C32.9678 45.5665 33.0237 45.2733 33.084 44.9568C33.0995 44.8757 33.1152 44.7932 33.1289 44.7095C33.1371 44.6594 33.1446 44.6088 33.1509 44.5579C33.153 44.5404 33.155 44.5229 33.1569 44.5053C33.2283 44.534 33.2918 44.5587 33.3495 44.5811C33.3561 44.5837 33.3627 44.5862 33.3691 44.5887C33.5074 44.6423 33.6125 44.683 33.7176 44.7359C33.5101 44.6151 33.347 44.4837 33.2224 44.3423C33.2108 44.3291 33.1995 44.3159 33.1885 44.3025C32.7687 43.7904 32.8327 43.1501 33.1059 42.4047C32.6993 42.1322 32.7656 41.7693 32.8334 41.3985C32.8676 41.2114 32.9022 41.0224 32.8765 40.842C32.8171 40.4685 32.8183 40.0775 32.8195 39.6844C32.8204 39.4035 32.8213 39.1215 32.8001 38.8439C32.7873 38.703 32.7491 38.5621 32.7109 38.4212C32.6726 38.2803 32.6344 38.1394 32.6217 37.9985C32.6037 37.8719 32.6492 37.7453 32.7044 37.5916C32.7274 37.5276 32.7521 37.459 32.7746 37.3837C32.3923 37.2043 32.3413 36.8713 32.4942 36.359C32.5668 36.0853 32.5101 35.7725 32.4531 35.4579C32.43 35.3308 32.4069 35.2034 32.3923 35.0782C32.3414 34.567 32.3159 34.0559 32.2905 33.5448L32.2903 33.5411C32.2903 33.5155 32.2874 33.487 32.2846 33.4585C32.2789 33.4016 32.2733 33.3447 32.2903 33.3105C32.6048 32.8469 32.5054 32.4007 32.4035 31.9432C32.3815 31.8446 32.3594 31.7454 32.3413 31.6454C32.2733 31.2013 32.2733 30.7458 32.2733 30.2866C32.2733 30.057 32.2733 29.8265 32.2648 29.596C32.2648 29.4998 32.2348 29.4136 32.2062 29.3312C32.1981 29.308 32.1902 29.2852 32.1831 29.2626C32.1804 29.2542 32.1779 29.2458 32.1755 29.2374C32.1706 29.2203 32.1663 29.2032 32.1629 29.1862C32.1374 29.1862 32.1119 29.1798 32.0864 29.1734C32.0609 29.167 32.0354 29.1606 32.0099 29.1606C32.0003 29.1812 31.9907 29.2018 31.9811 29.2223C31.9777 29.2297 31.9743 29.237 31.9708 29.2444C31.8053 29.5973 31.6382 29.9315 31.4492 30.2877C31.3824 30.4124 31.3191 30.5408 31.2554 30.6701C31.149 30.8859 31.0415 31.1041 30.9139 31.3124C30.481 32.0034 30.0227 32.6688 29.5644 33.3343L29.5631 33.3361C29.4878 33.4388 29.4137 33.5415 29.3398 33.6439C29.0631 34.0271 28.7889 34.4069 28.4671 34.7707C28.0254 35.3 27.5611 35.8066 27.0967 36.3131C26.8644 36.5665 26.6321 36.82 26.4026 37.0763C26.3262 37.1531 26.1732 37.2299 26.0713 37.2299C25.7909 37.2043 25.587 37.2043 25.6125 37.563C25.6125 37.6142 25.5615 37.6911 25.5105 37.7167C25.3577 37.8191 25.2049 37.9243 25.0521 38.0296C24.7461 38.2403 24.4402 38.451 24.1342 38.6389C23.5739 38.9461 22.9883 39.2276 22.4025 39.5092L22.401 39.5099C21.6109 39.8942 20.7698 39.9454 19.9542 39.6124C19.6229 39.4587 19.5973 39.305 19.8267 39.0488C20.1071 38.7158 20.413 38.5365 20.8717 38.5621C21.356 38.5877 21.8148 38.5365 22.2481 38.1778C22.4859 37.9687 22.7672 37.8292 23.0513 37.6883C23.2543 37.5876 23.4587 37.4862 23.6499 37.3581C24.1342 37.0507 24.6185 36.692 25.0772 36.3334C25.1807 36.2572 25.2841 36.1847 25.3865 36.1129C25.6627 35.9193 25.9315 35.7309 26.1732 35.488C26.3056 35.3716 26.395 35.2011 26.4834 35.0327C26.531 34.9418 26.5784 34.8516 26.632 34.7707C26.7594 34.5915 26.887 34.412 27.0398 34.2327C27.1418 34.1047 27.2565 33.983 27.3712 33.8613C27.4859 33.7396 27.6005 33.618 27.7025 33.4899C27.9828 33.1568 28.2632 32.7982 28.5181 32.4395L28.5188 32.4384C28.6715 32.2082 28.8242 31.978 28.9514 31.7223C29.0406 31.5557 29.1171 31.3892 29.1935 31.2227C29.27 31.0562 29.3465 30.8897 29.4357 30.7232C29.4958 30.6264 29.5843 30.5468 29.6718 30.4682C29.7696 30.3802 29.8661 30.2934 29.9199 30.1852C30.0092 30.0187 30.0729 29.8394 30.1366 29.6601C30.2003 29.4807 30.264 29.3014 30.3532 29.1349C30.4677 28.9211 30.6138 28.7285 30.7643 28.5299C30.8483 28.419 30.9338 28.3063 31.0159 28.1871C31.0413 28.1359 31.0669 28.0845 31.0669 28.059C31.0385 27.6163 31.2081 27.2372 31.377 26.8597C31.5111 26.5601 31.6448 26.2615 31.6786 25.9327V25.8815C32.1234 25.3674 32.1801 24.7362 32.2381 24.0901C32.2466 23.9958 32.2551 23.9011 32.2648 23.8065C32.2648 23.7809 32.2775 23.7489 32.2903 23.7168C32.3031 23.6848 32.3158 23.6528 32.3158 23.6272V22.0389C32.3158 21.9024 32.3426 21.7748 32.3698 21.6456C32.3885 21.5566 32.4073 21.4669 32.4177 21.3729C32.4519 21.0408 32.4912 20.7087 32.531 20.372C32.5803 19.9555 32.6303 19.5321 32.6726 19.0929C32.7873 19.1057 32.902 19.1121 33.0167 19.1185C33.1314 19.1249 33.2461 19.1313 33.3608 19.1441C32.8081 18.9334 32.8682 18.6081 32.9337 18.2539C32.9558 18.1344 32.9785 18.0117 32.9785 17.8889C32.9666 17.5666 33.0433 17.2665 33.1182 16.9731C33.2041 16.6369 33.2878 16.3096 33.2334 15.9676C33.2191 15.896 33.1889 15.8244 33.1606 15.7572C33.1383 15.7043 33.1171 15.6541 33.1059 15.609C33.1331 15.5542 33.1701 15.5027 33.2064 15.4521C33.2719 15.3607 33.3353 15.2724 33.3353 15.1734C33.3098 14.6867 33.6412 14.3537 33.998 14.3793C34.3294 14.405 34.7881 14.6867 34.9665 14.9942C35.1483 15.2987 35.2021 15.6837 35.2546 16.0598C35.2683 16.1583 35.282 16.2562 35.2979 16.3519C35.3234 16.5312 35.3488 16.7105 35.3234 16.8898C35.3234 17.0435 35.3106 17.1908 35.2979 17.3382C35.2851 17.4854 35.2724 17.6327 35.2724 17.7864C35.2628 17.9017 35.264 18.0207 35.2652 18.1392C35.2672 18.3365 35.2692 18.5326 35.2214 18.7087C35.1858 18.8696 35.0633 19.0055 34.932 19.1513C34.8751 19.2144 34.8165 19.2794 34.7627 19.3491C35.0467 19.9042 34.8911 20.4495 34.7313 21.0093C34.6732 21.2129 34.6146 21.4184 34.5763 21.6269ZM32.0651 23.7931C32.0669 23.7559 32.0757 23.7242 32.082 23.7041C32.089 23.6816 32.0978 23.6596 32.1036 23.6451L32.1045 23.6428C32.1103 23.6283 32.1136 23.6197 32.1158 23.6134M32.0651 23.7931C32.0553 23.8895 32.0466 23.984 32.0381 24.0768C31.9784 24.728 31.927 25.2887 31.5274 25.7507L31.4786 25.807V25.9213C31.4466 26.2121 31.3283 26.4781 31.1943 26.7781C31.1771 26.8168 31.1596 26.856 31.142 26.8959C30.9951 27.2288 30.846 27.6031 30.8655 28.0384C30.8599 28.0511 30.8526 28.0662 30.8432 28.0852C30.7663 28.1961 30.6878 28.2997 30.6077 28.4054C30.5738 28.4501 30.5396 28.4952 30.5052 28.5414C30.3889 28.6971 30.2734 28.8604 30.1769 29.0404M34.1393 62.7488C34.2066 62.5223 34.2332 62.2799 34.257 62.0619C34.2624 62.0132 34.2676 61.9658 34.273 61.9201C34.3047 61.6558 34.3462 61.4365 34.4509 61.2576C34.7122 60.8111 34.9116 60.3897 34.9116 59.7988C34.9116 59.2953 34.9778 58.7904 35.0453 58.2747C35.0793 58.0154 35.1136 57.7534 35.14 57.4875L35.1405 57.4819C35.1581 57.2346 35.1522 56.9906 35.1465 56.7543C35.1438 56.6409 35.1411 56.5293 35.141 56.42C35.151 56.0516 35.1691 55.6764 35.1873 55.2988C35.215 54.7247 35.243 54.1448 35.243 53.5738C35.243 53.006 35.22 52.4348 35.1973 51.8683C35.186 51.5879 35.1748 51.3087 35.1664 51.0317L35.1663 51.0278C35.1563 50.8272 35.1543 50.6273 35.1522 50.4228C35.1517 50.3711 35.1512 50.3191 35.1506 50.2667C35.1474 50.0096 35.1409 49.7462 35.1146 49.4809L35.1145 49.4799C35.0883 49.2298 35.0491 48.9874 35.0076 48.7406C35.0023 48.709 34.997 48.6773 34.9916 48.6455C34.96 48.4584 34.9278 48.2674 34.8985 48.0635C34.9055 48.0563 34.9127 48.0487 34.9199 48.0408C34.9422 48.0164 34.9688 47.9843 34.9908 47.9472C35.0111 47.9129 35.0391 47.8554 35.0391 47.7843L35.0388 47.7743C35.013 47.2556 34.9614 46.7361 34.8837 46.2419L34.883 46.2373C34.8694 46.1626 34.8555 46.0899 34.842 46.0189C34.7482 45.5287 34.67 45.1197 34.844 44.6877C34.8636 44.6446 34.8691 44.6027 34.871 44.5742C34.8731 44.542 34.8715 44.511 34.8696 44.4868C34.8676 44.4602 34.8657 44.4416 34.8641 44.4268C34.862 44.4071 34.8607 44.3939 34.8607 44.3772L34.8605 44.3695C34.8477 44.0345 34.8285 43.7062 34.8094 43.3802C34.7903 43.0533 34.7712 42.7277 34.7586 42.397L34.7579 42.3866C34.7508 42.3075 34.7455 42.2226 34.7402 42.135C34.7283 41.9418 34.7156 41.7357 34.6795 41.5514C34.6495 41.3421 34.6081 41.135 34.5682 40.9352C34.5559 40.8736 34.5437 40.8127 34.532 40.7527C34.4814 40.4922 34.4392 40.2412 34.4271 39.9872L34.4267 39.9801C34.3763 39.3723 34.3708 38.7706 34.3652 38.1605C34.3624 37.8521 34.3596 37.5416 34.3509 37.2271C34.3506 37.0646 34.3212 36.9072 34.2888 36.7609C34.2788 36.7157 34.2687 36.6721 34.2588 36.6294C34.2377 36.5384 34.2174 36.4512 34.2011 36.3601C34.2075 36.3257 34.2143 36.29 34.2213 36.2531C34.2685 36.0064 34.3254 35.708 34.3254 35.4112L34.3254 35.4057C34.3085 34.794 34.2691 34.1902 34.2297 33.5872C34.2095 33.2779 34.1893 32.9689 34.1722 32.659L34.1721 32.658C34.1212 31.8125 34.0704 30.9443 34.0449 30.1023L34.0447 30.0973C34.0281 29.796 34.0336 29.5123 34.0393 29.2238C34.0421 29.0768 34.045 28.9286 34.045 28.7763C34.045 28.7498 34.0468 28.727 34.049 28.6973C34.0507 28.6756 34.0526 28.6503 34.0543 28.617C34.0578 28.5518 34.0587 28.4709 34.0425 28.3853C34.0379 28.3513 34.0333 28.3174 34.0288 28.2837C33.9049 27.3673 33.7901 26.5185 34.1496 25.6938C34.2237 25.5717 34.2236 25.4501 34.2235 25.3786C34.2613 24.9866 34.3054 24.5944 34.3496 24.2003C34.3942 23.8036 34.439 23.4047 34.4774 23.0059L34.4776 23.0033C34.4926 22.8226 34.516 22.647 34.5435 22.4403C34.5582 22.3293 34.5742 22.2092 34.5907 22.0746L34.7332 22.0645H34.5919" fill="currentColor"/>
</g>
<defs>
<clipPath id="clip0_1898_458">
<rect width="58.8606" height="74.9998" fill="white"/>
</clipPath>
</defs>
</svg>
