<svg width="60" height="75" viewBox="0 0 60 75" fill="none" xmlns="http://www.w3.org/2000/svg">
<g clip-path="url(#clip0_1680_404)">
<path fill-rule="evenodd" clip-rule="evenodd" d="M52.3076 48.5523C51.9254 48.2448 51.9507 47.8093 51.8487 47.3995C51.6192 46.3492 51.4411 45.2988 51.3391 44.223C51.1863 42.9421 50.7781 41.7125 50.9822 40.3803C51.0329 39.9961 50.7528 39.5862 50.8035 39.202C50.8802 38.331 50.6761 37.5112 50.6253 36.6658C50.6 36.3585 50.6507 36.051 50.6253 35.7436C50.5487 34.9239 50.7781 34.1041 50.6 33.2844C50.4979 32.772 50.6 32.2084 50.6253 31.6705C50.6253 31.0044 50.6253 30.3384 50.6253 29.6211C50.9568 29.7235 51.2877 29.8004 51.6192 29.8773C51.6446 29.826 51.6446 29.7748 51.6706 29.7492C51.4665 29.6467 51.2624 29.5442 51.0589 29.493C50.8294 29.4162 50.702 29.3393 50.7528 29.0063C50.8035 28.7245 50.6761 28.4171 50.6 28.1096C50.5233 27.8022 50.6507 27.6741 50.9822 27.6485C51.1863 27.6485 51.3644 27.5717 51.5685 27.418C51.3137 27.3668 51.0329 27.3155 50.7528 27.2643C50.7274 27.1618 50.7527 26.9825 50.6761 26.9313C50.5746 26.88 50.2939 26.8544 50.2685 26.9313C50.0644 27.3155 49.8863 27.7254 49.7335 28.1353C49.7075 28.2121 49.6568 28.289 49.6822 28.3658C49.7075 28.6476 49.8609 28.9551 49.3253 28.9294C49.2233 28.9294 49.0198 29.3393 48.9685 29.5954C48.8924 29.9029 48.5863 31.0556 48.4589 31.2862C48.3822 31.3887 48.3822 31.5168 48.3061 31.6448C48.2041 31.7986 48.0766 31.9523 47.8726 32.1828C47.8472 32.6183 47.4903 33.0282 47.1842 33.4893C47.1335 33.5661 47.0061 33.6174 47.0061 33.6942C46.9554 34.5908 46.1903 35.0776 45.8081 35.7949C45.528 36.3072 45.2472 36.8196 44.9416 37.3063C44.5594 37.9211 44.1512 38.5359 43.7437 39.1507C43.6416 39.33 43.5909 39.5093 43.4375 39.868C43.3615 39.6631 43.3355 39.535 43.2848 39.3813C43.2341 39.4069 43.1827 39.4325 43.132 39.4581C43.3868 40.2523 42.7498 40.7134 42.4183 41.2514C41.934 42.0455 41.3477 42.814 40.6854 43.4544C40.3285 43.813 39.9457 44.3766 39.2579 44.2486C38.9518 44.7865 38.595 44.9146 38.06 44.5816C37.6518 44.3254 37.2949 43.9924 36.9381 43.6594C36.8874 43.6081 36.9127 43.4544 36.8874 43.3519C36.862 43.2239 36.8107 43.0958 36.76 42.9677C36.7346 42.8908 36.6326 42.8396 36.6326 42.7628C36.6579 42.3272 36.6833 41.8917 36.7346 41.4563C36.7346 41.3538 36.8107 41.2001 36.76 41.1233C36.3011 40.3547 36.4798 39.4837 36.3524 38.6896C36.2757 38.126 36.4798 37.5112 36.5305 36.922C36.6072 36.0254 36.76 35.1288 36.5812 34.2066C36.5052 33.7711 36.6833 33.2844 36.7346 32.8233C36.76 32.6183 36.7093 32.439 36.7093 32.234C36.6326 32.234 36.5559 32.234 36.5052 32.234C36.4031 32.7208 36.3011 33.1819 36.199 33.6686C36.1737 33.7198 36.199 33.7967 36.1737 33.848C35.9442 34.2578 35.664 34.6164 35.6387 35.1288C35.6127 35.3594 35.4853 35.6155 35.1285 35.5899C35.027 35.5899 34.925 35.8205 34.8229 35.9485C34.364 36.3841 33.9051 36.2304 33.4976 35.9485C33.5742 35.6924 33.6503 35.4362 33.727 35.18C34.7716 34.3091 34.8736 33.0026 35.1031 31.7729C35.1031 31.7217 35.1031 31.6448 35.1285 31.6192C35.6387 31.1581 35.5113 30.4665 35.7661 29.9029C35.7914 29.8516 35.8681 29.8004 35.9189 29.7492C35.9955 29.6467 36.1737 29.5186 36.1483 29.4162C36.1229 28.6732 36.5812 28.1609 36.9127 27.5973C37.1168 27.213 37.2442 26.8032 37.397 26.3677C37.6518 25.6504 37.9066 24.9331 38.1361 24.2158C38.2635 23.8315 38.3148 23.4217 38.4168 23.0374C38.5696 22.397 38.7737 21.7822 38.9264 21.1418C38.9772 20.9112 38.9264 20.6806 38.9264 20.4501C39.0792 20.3732 39.2066 20.322 39.4361 20.2195C38.8498 19.9377 39.0285 19.5279 39.1559 19.1692C39.232 18.9386 39.3087 18.7081 39.3854 18.5032C39.4874 18.2214 39.6148 17.9396 39.6655 17.6322C39.7422 17.2991 39.7162 16.9661 39.7929 16.6331C39.9717 15.8902 40.1751 15.1729 40.3792 14.43C40.4813 14.0457 40.5573 13.6615 40.7107 13.3029C40.8128 13.0467 40.9142 12.7137 41.3477 12.7905C41.4752 12.8161 41.6279 12.7649 41.7553 12.7649C42.4437 12.7905 42.3416 12.8161 42.469 13.4821C42.6224 14.3788 42.1635 15.1217 42.0615 15.9414C41.9594 16.5819 41.8066 17.1967 41.6539 17.8115C41.6026 17.9908 41.5005 18.1702 41.4498 18.3494C41.3477 18.7849 41.297 19.2205 41.195 19.656C41.0416 20.2964 40.8635 20.9112 40.7107 21.5516C40.5573 22.2177 40.4299 22.9093 40.2772 23.5754C40.2005 23.8828 40.0731 24.1902 39.997 24.472C39.895 24.805 39.8183 25.138 39.7162 25.4711C39.5888 25.9322 39.4614 26.3677 39.3087 26.8032C39.2066 27.0594 39.36 27.418 38.9772 27.5461C38.9518 27.5461 38.9518 27.7766 38.9772 27.8535C39.1559 28.2633 39.0031 28.5964 38.7477 28.8013C38.7477 29.1599 38.7477 29.4674 38.7477 29.7748C38.3655 29.7492 38.1874 29.9797 38.3401 30.3128C38.5189 30.697 38.3401 30.8763 38.0346 31.0812C38.7477 31.3631 38.3148 31.9267 38.3148 32.3622C38.3148 32.8745 38.2127 33.3612 38.162 33.8736C38.1361 34.0016 38.162 34.181 38.1107 34.2322C37.8559 34.3859 37.7285 34.4884 38.1107 34.6421C38.162 34.6677 38.162 34.7702 38.162 34.847C38.162 35.4618 38.162 36.0766 38.162 36.7171C37.9326 36.6915 37.8305 36.6915 37.6011 36.6658C37.7792 36.922 37.9066 37.1013 38.06 37.2807C37.9579 37.3575 37.8305 37.4343 37.6778 37.5368C37.6778 37.5624 37.7031 37.588 37.7031 37.6137C37.8305 37.588 37.9326 37.5368 38.1107 37.4856C38.1107 38.1516 38.1107 38.7921 38.1107 39.4325C38.1107 39.5093 38.1361 39.5606 38.1107 39.6375C37.9066 40.2523 38.0853 40.8415 38.2635 41.4306C38.3655 41.8149 38.3655 42.2248 38.4676 42.6091C38.5189 42.7628 38.6463 42.9421 38.7737 43.0446C38.8498 43.0958 39.0539 42.9677 39.1559 42.8652C39.7676 42.148 40.3792 41.4306 40.9655 40.7134C41.0676 40.5853 41.0676 40.3547 41.1696 40.2523C41.3731 39.9192 41.5772 39.5862 41.7813 39.2788C41.8827 39.0995 41.9848 38.9201 42.1122 38.7409C42.4183 38.2798 42.7238 37.8186 43.03 37.3831C43.2848 37.0245 43.5649 36.6915 43.8711 36.3072C43.9218 36.2047 43.9478 35.9998 44.0492 35.8717C44.3553 35.4618 44.7376 35.1288 45.0177 34.6933C45.1457 34.4884 45.0944 34.181 45.1198 33.8736C45.4513 33.8223 45.6554 33.6174 45.6554 33.2075C45.6554 33.105 45.7574 32.9769 45.8335 32.8745C46.165 32.3109 46.4965 31.7473 46.8274 31.1837C47.1589 30.5945 47.4903 30.031 47.7705 29.4162C47.9746 29.0319 48.102 28.5964 48.2807 28.2121C48.6116 27.5205 48.9685 26.8544 49.2746 26.1371C49.4781 25.6248 49.6061 25.0612 49.8096 24.5233C49.937 24.2158 50.1411 23.934 50.3192 23.6522C50.3452 23.601 50.4213 23.5242 50.4213 23.4986C50.1664 23.0118 50.5746 22.73 50.702 22.3714C50.8548 21.9615 50.8548 21.4748 51.0842 21.1162C51.4157 20.6038 51.237 19.989 51.4411 19.5022C51.772 18.6825 51.772 17.8627 51.9 17.0174C52.0274 16.1208 52.1035 15.2242 52.2822 14.3276C52.3843 13.764 52.6391 13.2004 52.7665 12.8161C52.8685 12.3038 52.9192 11.9451 52.9959 11.5865C53.072 11.2791 53.1487 10.946 53.3268 10.7155C53.4542 10.5618 53.7857 10.5361 54.0918 10.4337C53.9644 10.3056 53.7603 10.1519 53.5055 9.89575C53.6837 9.43465 53.8877 8.89667 54.0918 8.35869C54.1426 8.25621 54.1939 8.1538 54.2193 8.05132C54.3467 7.48774 54.4227 6.92414 54.6015 6.36056C54.8816 5.54081 55.2131 4.72105 55.57 3.90129C55.6467 3.72197 55.9015 3.61951 56.1563 3.41457C56.0035 2.38987 56.4878 1.57012 57.4303 0.929688C57.507 0.955305 57.5837 0.980919 57.6598 1.00654C58.2714 1.08339 58.705 1.26271 58.3481 2.00562C58.3228 2.05685 58.4502 2.15932 58.4502 2.23617C58.5009 2.44111 58.6029 2.7229 58.5269 2.85099C58.2461 3.3121 58.17 3.79882 58.144 4.33679C58.144 4.54172 57.8132 4.74667 57.7111 4.95161C57.6598 5.36148 57.6091 5.77136 57.5324 6.15562C57.5324 6.18124 57.2776 6.18124 57.1755 6.18124C57.4817 6.61673 57.405 7.33399 57.0481 7.92318C56.9207 8.1538 56.8954 8.43556 56.8187 8.69172C56.768 8.84546 56.7933 9.05035 56.7172 9.15282C56.4111 9.43465 56.4364 9.84449 56.3344 10.1775C56.207 10.5874 55.9522 10.9717 55.7994 11.3047C55.5193 11.3816 55.2898 11.4328 55.0857 11.484C55.1364 11.6377 55.1624 11.7658 55.2131 11.8939C55.3405 11.7915 55.4172 11.7146 55.4933 11.6633C55.5446 11.7658 55.6467 11.8939 55.6207 11.9707C55.4933 12.4062 55.5446 12.9186 55.0857 13.2516C55.009 13.3029 55.0604 13.559 54.9583 13.7384C54.933 13.9433 54.8816 14.1226 54.8563 14.3276C54.8309 14.5068 54.8563 14.7887 54.7542 14.8399C54.4227 15.0192 54.4994 15.301 54.4227 15.5828C54.3467 15.9927 54.1172 16.3513 53.9644 16.7356C53.9131 16.838 53.8878 16.9661 53.837 17.0942C53.7857 17.2991 53.735 17.5041 53.6583 17.6834C53.6329 18.0164 53.6583 18.375 53.5563 18.6825C53.3781 19.3229 53.0213 19.9377 52.9192 20.6038C52.7151 21.7565 52.2822 22.8837 52.4096 24.0878C52.4603 24.805 52.3329 25.5223 52.2822 26.2396C52.2822 26.3421 52.2055 26.4702 52.1035 26.5214C51.6192 26.7519 51.6959 26.9825 52.0781 27.2386C52.1288 27.2643 52.1548 27.3411 52.2055 27.418C51.8233 27.6485 51.874 27.9304 52.0014 28.3146C52.1548 28.7501 52.1288 29.2624 52.1802 29.7492C52.2055 29.9541 52.2055 30.159 52.1548 30.364C52.1288 30.5177 52.0274 30.6457 51.9507 30.8251C52.6131 31.1325 52.0014 31.7217 52.1802 32.2084C52.2055 32.3109 52.1802 32.439 52.1802 32.567C52.1802 32.8233 52.2055 33.0538 52.2055 33.31C52.2055 33.8736 52.2055 34.4371 52.2055 35.0007C52.2055 35.4618 52.1548 35.8973 52.1548 36.3584C52.1548 36.4865 52.2055 36.6402 52.2569 36.7683C52.3076 36.9476 52.3583 37.1013 52.3583 37.2807C52.3843 37.9979 52.3843 38.7409 52.435 39.4581C52.5117 40.6365 52.6131 41.7893 52.7151 42.9677C52.7411 43.1214 52.8172 43.2751 52.8172 43.4288C52.8425 43.5825 52.8172 43.7106 52.8172 43.8643C52.8172 43.9668 52.8425 44.0693 52.8685 44.1717C52.9699 44.7609 53.0974 45.3245 53.174 45.9137C53.1994 46.1187 53.0974 46.3235 53.0213 46.6054C53.2761 46.7334 53.3528 46.9128 53.3268 47.3226C53.3014 47.6301 53.5822 48.0143 53.6329 48.4242C53.735 48.9622 53.9131 49.5001 53.9898 50.0637C54.0405 50.4736 53.9898 50.8835 53.9898 51.2933C54.1939 51.7032 54.3974 52.1131 54.6015 52.5486C54.5248 52.6766 54.4227 52.8304 54.3974 52.8816C54.5761 53.0609 54.7542 53.1634 54.8056 53.2915C54.933 53.6757 55.009 54.06 55.1111 54.4699C55.035 54.6492 54.8816 54.9054 54.8056 55.1615C54.7796 55.264 54.8563 55.469 54.9583 55.5202C55.4426 55.8532 55.57 56.3656 55.7994 56.8523C55.8248 56.9292 55.8761 57.0316 55.8501 57.0828C55.4933 57.5183 55.8501 57.6208 56.1816 57.7489C56.0035 58.21 56.0035 58.6199 56.4878 58.9017C56.5639 58.9529 56.5892 59.1066 56.6152 59.2091C56.7426 59.6189 56.87 60.0544 56.9974 60.4643C57.0481 60.5924 57.0481 60.7461 57.0228 60.9254C56.6913 60.7205 56.3344 60.618 56.2324 60.1569C56.1816 59.9007 55.8761 59.6958 55.7481 59.4396C55.4933 58.8505 55.2898 58.21 55.0604 57.6208C54.933 57.2622 54.7289 56.9292 54.6015 56.5705C54.4227 56.135 54.27 55.6739 54.1172 55.2128C53.9644 54.7773 53.7857 54.3418 53.6329 53.9063C53.5822 53.7526 53.5055 53.5733 53.4542 53.394C53.3528 53.1121 53.174 52.8304 53.174 52.5486C53.2254 52.0106 52.9446 51.6263 52.7918 51.1652C52.5624 50.4992 52.4603 49.8075 52.3329 49.1159C52.3076 48.9878 52.3583 48.834 52.3583 48.6804C52.2055 48.5779 52.2569 48.5779 52.3076 48.5523ZM55.009 10.1775C54.9837 10.2288 54.9583 10.28 54.933 10.3313C55.1111 10.4337 55.2898 10.5618 55.4426 10.6643C55.5193 10.5105 55.5953 10.3569 55.6974 10.1263C55.3919 10.1263 55.2131 10.1519 55.009 10.1775Z" fill="currentColor"/>
<path fill-rule="evenodd" clip-rule="evenodd" d="M34.9756 21.9364C34.9247 22.372 34.8736 22.6793 34.8482 22.9867C34.7717 23.7809 34.6697 24.575 34.5933 25.3692C34.5933 25.446 34.5933 25.5228 34.5423 25.5997C34.1345 26.5219 34.2875 27.4698 34.4149 28.4176C34.4404 28.5457 34.4149 28.6738 34.4149 28.7763C34.4149 29.2118 34.3894 29.6473 34.4149 30.1084C34.4404 30.9537 34.4914 31.8247 34.5423 32.6701C34.5933 33.5924 34.6698 34.4889 34.6953 35.4112C34.6953 35.7441 34.6188 36.0772 34.5678 36.359C34.6188 36.6664 34.7208 36.9482 34.7208 37.2299C34.7462 38.1522 34.7208 39.0744 34.7972 39.9967C34.8227 40.5346 34.9756 41.047 35.0521 41.5849C35.1031 41.8411 35.103 42.1229 35.1286 42.4047C35.1541 43.0707 35.205 43.7112 35.2305 44.3772C35.2305 44.4541 35.256 44.5565 35.2305 44.6077C35.0011 45.1713 35.1541 45.7093 35.256 46.2729C35.3324 46.7596 35.3834 47.272 35.4089 47.7843C35.4089 47.8612 35.2815 47.9636 35.256 47.9892C35.3324 48.5528 35.4344 49.0139 35.4854 49.5007C35.5363 50.013 35.5108 50.5254 35.5363 51.0377C35.5619 51.8831 35.6128 52.7285 35.6128 53.5738C35.6128 54.5217 35.5363 55.4695 35.5108 56.4173C35.5108 56.776 35.5363 57.109 35.5108 57.4677C35.4344 58.2362 35.2815 59.0303 35.2815 59.7988C35.2815 60.3368 35.103 60.721 34.8482 61.1565C34.5933 61.5921 34.6698 62.1812 34.5168 62.6936C34.3894 63.1545 34.3384 63.6926 33.8796 63.8209C33.8287 64.2307 33.8287 64.5636 33.7522 64.9225C33.5993 65.6138 33.4209 66.2802 33.1915 66.946C33.013 67.4587 32.7837 67.9453 32.5543 68.432C32.3249 68.9186 32.0955 69.4053 31.7897 69.8665C31.5092 70.3017 31.1779 70.7121 30.7956 71.0958C30.2349 71.634 29.6232 72.1466 29.0114 72.6587C28.3997 73.1708 27.7625 73.5812 26.9469 73.6835C26.1313 73.8118 25.3412 74.0678 24.5256 74.2216C24.0413 74.2984 23.5315 74.2984 23.0473 74.2724C22.9199 74.2724 22.7924 74.1187 22.7924 74.1187C22.3846 74.1187 22.1042 74.1187 21.8239 74.1187C21.3906 74.1187 21.0337 74.0164 20.6259 73.8118C20.2691 73.632 19.9123 73.0945 19.3261 73.376C19.1986 73.4274 18.9183 73.1199 18.6634 72.9662C18.434 73.2476 18.1281 72.9408 17.8478 72.8125C17.6948 72.761 17.5164 72.761 17.3635 72.7102C17.0067 72.6073 16.6499 72.4795 16.293 72.3766C15.8852 72.2489 15.4009 72.2235 15.0951 71.9669C14.7128 71.6594 13.9991 71.5825 14.101 70.8398C14.101 70.8144 14.0501 70.8144 13.9736 70.7629C13.9226 70.8913 13.8717 71.019 13.7697 71.2242C13.5913 71.019 13.3619 70.8913 13.311 70.6861C13.1835 70.2509 12.9286 70.2509 12.5718 70.3278C12.3679 70.3786 11.96 70.2763 11.9346 70.174C11.7817 69.6874 11.3484 69.7642 11.068 69.6105C10.9915 69.5076 10.9406 69.3538 10.8641 69.2515C10.7621 69.1493 10.5582 69.0978 10.4818 68.9701C10.2779 68.6366 10.0485 68.4828 9.64067 68.5857C9.56423 68.6111 9.41129 68.4574 9.33484 68.3297C9.07991 67.9193 9.05443 67.3049 8.44277 67.1512C7.34678 66.8691 6.78602 65.8444 5.91945 65.2294C5.69006 65.0502 5.51164 64.7688 5.35871 64.5121C5.30774 64.4353 5.40969 64.2561 5.46066 64.1284C4.39017 63.718 4.28822 63.5649 4.67054 62.9499C4.18627 63.0007 4.00786 62.6936 3.88041 62.3093C3.82944 62.1556 3.60005 62.0532 3.47261 61.9251C3.37066 61.8482 3.26871 61.7457 3.21773 61.6433C2.88639 60.9773 2.58054 60.3112 2.30017 59.6451C1.99432 58.9022 1.53553 58.1337 1.45907 57.3652C1.40809 56.6992 1.10224 56.238 0.949313 55.6489C0.949313 55.6232 0.923823 55.6232 0.923823 55.5976C1.12773 54.9059 0.668944 54.3423 0.59248 53.7019C0.59248 53.6251 0.541504 53.5226 0.59248 53.4714C0.94931 53.0102 0.643458 52.5235 0.694434 52.0112C0.719921 52.0112 0.770897 51.9855 0.821873 51.9599C1.51005 51.8831 1.51005 51.8831 1.30614 52.6004C1.25516 52.7541 1.28065 52.9334 1.30614 53.0871C1.43358 53.9068 1.48456 54.7522 1.79042 55.4951C1.96883 55.9306 1.84139 56.3405 1.96883 56.7248C2.0198 56.9041 2.24919 57.0578 2.42761 57.2115C2.63151 57.3652 2.91188 57.4677 2.60602 57.8007C2.55505 57.8519 2.55505 58.0313 2.60602 58.1337C2.86091 58.5692 2.73346 59.2608 3.44712 59.4146C3.54908 59.4402 3.60005 59.6195 3.67651 59.722C3.60005 59.7732 3.52359 59.7988 3.44712 59.8501C3.47261 59.9013 3.47261 59.9269 3.47261 59.9526C3.85493 60.2599 4.05883 60.6186 4.16078 61.1309C4.21176 61.4384 4.59407 61.6689 4.82347 61.9507C4.89993 62.0276 5.07835 62.0276 5.10384 62.1044C5.33323 62.8985 6.04689 63.3082 6.53115 63.9232C6.63311 64.0515 6.76054 64.2307 6.78602 64.3844C6.83698 65.0502 7.44871 65.1531 7.80556 65.4861C8.00947 65.6652 8.16236 65.8704 8.34078 66.075C8.46825 66.2287 8.54469 66.4594 8.69764 66.5362C9.7426 66.9206 10.5073 67.7147 11.3993 68.3551C11.8581 68.6626 12.3169 68.9441 12.8012 69.2261C13.7443 69.7642 14.6618 70.2763 15.6048 70.7884C15.8088 70.8913 16.0127 70.9681 16.2166 71.0704C16.9047 71.3779 17.5674 71.7362 18.2556 71.9929C18.9438 72.2489 19.6574 72.4027 20.3456 72.6073C20.4985 72.6587 20.6515 72.8124 20.8043 72.8639C21.1612 72.9662 21.518 73.0431 21.9003 73.1199C22.1552 73.1708 22.4101 73.1708 22.665 73.1708C22.9963 73.1708 23.3532 73.1454 23.6845 73.0945C24.1942 73.0431 24.704 72.9916 25.2138 72.8893C25.6471 72.8124 26.0804 72.7102 26.4627 72.5304C27.0234 72.2743 27.6861 72.0437 28.0939 71.6085C28.8075 70.7884 29.8271 70.2763 30.3113 69.2515C30.5152 68.8163 30.8976 68.4828 31.1015 68.073C31.3309 67.5864 31.4328 67.0483 31.6112 66.5616C31.8661 65.819 32.1719 65.1271 32.4013 64.3844C32.5797 63.744 32.6817 63.0776 32.8346 62.4118C32.9111 62.1044 33.0385 61.797 33.115 61.464C33.2679 60.8748 33.3954 60.2855 33.5228 59.6964C33.5738 59.4658 33.5483 59.2096 33.5738 58.9535C33.6502 58.3643 33.7777 57.775 33.8542 57.1859C34.3639 57.1603 34.4149 57.0834 34.2875 56.5967C34.211 56.6479 34.1345 56.6991 34.0581 56.7248C33.9816 56.7504 33.8542 56.776 33.8032 56.7504C33.7522 56.7248 33.7267 56.5967 33.7522 56.4942C33.8032 55.905 33.8796 55.3158 33.9051 54.7522C33.9561 53.8812 34.0581 53.0102 33.9816 52.1393C33.9561 51.7294 33.9306 51.3195 33.9051 50.9096C33.8796 50.2436 33.8287 49.5775 33.8032 48.9115C33.7777 48.2198 33.7777 47.5281 33.7522 46.8621C33.7267 46.5034 33.7522 46.1704 33.6248 45.8118C33.4973 45.4531 33.6757 44.992 33.7267 44.5053C33.9816 44.6077 34.1345 44.659 34.2875 44.7359C33.3189 44.1723 33.3189 43.3782 33.6757 42.4047C33.064 41.9948 33.5228 41.38 33.4463 40.842C33.3444 40.2016 33.4209 39.5099 33.3699 38.8439C33.3444 38.5621 33.217 38.2803 33.1915 37.9985C33.166 37.8192 33.2679 37.6398 33.3444 37.3837C32.9621 37.2043 32.9111 36.8713 33.064 36.359C33.166 35.9747 33.013 35.5136 32.9621 35.0782C32.9111 34.5658 32.8856 34.0535 32.8601 33.5411C32.8601 33.4642 32.8346 33.3617 32.8601 33.3105C33.2424 32.7469 33.013 32.209 32.9111 31.6454C32.8091 30.9794 32.8601 30.2877 32.8346 29.596C32.8346 29.4423 32.7582 29.3142 32.7327 29.1862C32.6817 29.1862 32.6307 29.1606 32.5798 29.1606C32.4013 29.5448 32.223 29.9034 32.019 30.2877C31.8406 30.6207 31.6877 30.9794 31.4838 31.3124C31.0505 32.0041 30.5917 32.6701 30.1329 33.3361C29.7761 33.8229 29.4447 34.3096 29.0369 34.7707C28.3742 35.5649 27.6606 36.3077 26.9724 37.0763C26.896 37.1531 26.743 37.2299 26.6411 37.2299C26.3607 37.2043 26.1568 37.2043 26.1823 37.563C26.1823 37.6142 26.1313 37.6911 26.0804 37.7167C25.6216 38.0241 25.1628 38.3571 24.704 38.6389C24.1433 38.9464 23.5571 39.2281 22.9708 39.5099C22.1807 39.8942 21.3396 39.9454 20.524 39.6124C20.1927 39.4587 20.1671 39.305 20.3965 39.0488C20.6769 38.7158 20.9828 38.5365 21.4416 38.5621C21.9258 38.5877 22.3846 38.5365 22.8179 38.1778C23.2257 37.8192 23.761 37.6655 24.2198 37.3581C24.704 37.0507 25.1883 36.692 25.6471 36.3334C26.0294 36.0516 26.4117 35.821 26.743 35.488C26.9469 35.3087 27.0489 35.0013 27.2018 34.7707C27.3293 34.5914 27.4567 34.4121 27.6096 34.2327C27.8135 33.9766 28.0684 33.746 28.2723 33.4899C28.5527 33.1568 28.833 32.7982 29.088 32.4395C29.2408 32.209 29.3938 31.9784 29.5212 31.7223C29.6996 31.3892 29.8271 31.0562 30.0055 30.7232C30.1329 30.5182 30.3878 30.3901 30.4898 30.1852C30.6682 29.8522 30.7446 29.4679 30.9231 29.1349C31.1014 28.8019 31.3564 28.5201 31.5858 28.1871C31.6112 28.1358 31.6367 28.0846 31.6367 28.059C31.5858 27.2649 32.1719 26.6757 32.2484 25.9327C32.2484 25.9071 32.2484 25.9071 32.2484 25.8815C32.7582 25.2923 32.7582 24.5494 32.8346 23.8065C32.8346 23.7553 32.8856 23.6784 32.8856 23.6272C32.8856 23.0892 32.8856 22.5769 32.8856 22.0389C32.8856 21.8084 32.9621 21.6034 32.9876 21.3729C33.064 20.6299 33.166 19.8871 33.2424 19.0929C33.4718 19.1185 33.7012 19.1185 33.9306 19.1441C33.1915 18.8624 33.5483 18.3757 33.5483 17.8889C33.5228 17.1972 33.9051 16.608 33.8032 15.9676C33.7777 15.8395 33.7012 15.7114 33.6757 15.609C33.7522 15.4553 33.9051 15.3272 33.9051 15.1734C33.8796 14.6867 34.211 14.3537 34.5678 14.3793C34.8992 14.405 35.358 14.6867 35.5363 14.9942C35.7657 15.3784 35.7913 15.8908 35.8677 16.3519C35.8932 16.5312 35.9187 16.7105 35.8932 16.8898C35.8932 17.1972 35.8422 17.479 35.8422 17.7864C35.8167 18.0938 35.8677 18.4269 35.7913 18.7087C35.7402 18.9392 35.5108 19.1185 35.3325 19.3491C35.7913 20.2457 35.103 21.1167 35.103 22.0645C35.0775 21.8852 34.9247 21.9621 34.9756 21.9364Z" fill="currentColor"/>
<path fill-rule="evenodd" clip-rule="evenodd" d="M35.1462 21.6269C35.1265 21.7343 35.1122 21.8425 35.1062 21.9517C35.1041 21.9892 35.103 22.0268 35.103 22.0645C35.085 21.9378 35.0034 21.939 34.975 21.9416C34.9752 21.9399 34.9754 21.9382 34.9756 21.9364C34.9682 21.9402 34.9651 21.9417 34.9653 21.9422C34.9655 21.9427 34.9691 21.9421 34.975 21.9416C34.9692 21.9911 34.9634 22.0389 34.9577 22.0852C34.9575 22.0865 34.9573 22.0877 34.9572 22.089C34.943 22.2026 34.9291 22.3074 34.916 22.4062C34.8879 22.6181 34.8634 22.8024 34.8482 22.9867C34.8099 23.3838 34.7653 23.7809 34.7207 24.1779C34.6761 24.575 34.6315 24.9721 34.5933 25.3692C34.5933 25.446 34.5933 25.5228 34.5423 25.5997C34.1524 26.4815 34.2751 27.3868 34.398 28.293C34.4036 28.3346 34.4093 28.3761 34.4149 28.4176C34.4323 28.5052 34.4259 28.5927 34.4201 28.672C34.4174 28.7088 34.4149 28.7438 34.4149 28.7763C34.4149 28.9205 34.4121 29.0647 34.4093 29.2099C34.4036 29.503 34.3978 29.8 34.4149 30.1084C34.4404 30.9537 34.4914 31.8247 34.5423 32.6701C34.5597 32.9842 34.58 33.2953 34.6003 33.6055C34.6395 34.2061 34.6785 34.803 34.6953 35.4112C34.6953 35.6872 34.6427 35.9632 34.5957 36.2101C34.586 36.261 34.5765 36.3108 34.5678 36.359C34.5861 36.4692 34.6109 36.5761 34.6352 36.6809C34.6788 36.8684 34.7208 37.0492 34.7208 37.2299C34.7292 37.5374 34.7321 37.8448 34.7349 38.1522C34.7406 38.767 34.7462 39.3819 34.7972 39.9967C34.813 40.3296 34.8776 40.6528 34.9426 40.9783C34.9827 41.1787 35.0229 41.3799 35.0521 41.5849C35.0864 41.7573 35.0976 41.9412 35.109 42.1289C35.1146 42.2203 35.1202 42.3125 35.1286 42.4047C35.1413 42.7377 35.1604 43.0644 35.1795 43.3911C35.1986 43.7177 35.2178 44.0442 35.2305 44.3772C35.2305 44.4028 35.2333 44.4313 35.2362 44.4598C35.2418 44.5167 35.2475 44.5736 35.2305 44.6077C35.0301 45.1002 35.1215 45.573 35.2158 46.0605C35.2294 46.131 35.2431 46.2017 35.256 46.2729C35.3324 46.7596 35.3834 47.272 35.4089 47.7843C35.4089 47.8496 35.3169 47.9334 35.2736 47.9728C35.2659 47.9798 35.2598 47.9854 35.256 47.9892C35.2893 48.2351 35.3275 48.4615 35.3643 48.679C35.4117 48.96 35.4566 49.2263 35.4854 49.5007C35.5159 49.8081 35.519 50.1155 35.5221 50.4229C35.5241 50.6278 35.5261 50.8328 35.5363 51.0377C35.5448 51.3191 35.5561 51.6004 35.5675 51.8818C35.5901 52.4458 35.6128 53.0098 35.6128 53.5738C35.6128 54.1425 35.5853 54.7111 35.5578 55.2797C35.5394 55.6589 35.521 56.0381 35.5108 56.4173C35.5108 56.5379 35.5137 56.6555 35.5166 56.7722C35.5222 57.0027 35.5278 57.2295 35.5108 57.4677C35.4857 57.72 35.4524 57.9752 35.4189 58.2312C35.3504 58.755 35.2815 59.2827 35.2815 59.7988C35.2815 60.3368 35.103 60.721 34.8482 61.1565C34.6967 61.4153 34.6623 61.7283 34.6272 62.0472C34.6032 62.2651 34.5789 62.4857 34.5168 62.6936C34.4967 62.7665 34.4785 62.8413 34.4602 62.9161C34.3631 63.3144 34.2659 63.7129 33.8796 63.8209C33.8605 63.9744 33.8486 64.1172 33.8371 64.2545C33.8179 64.4838 33.8 64.6981 33.7522 64.9225C33.5993 65.6138 33.4209 66.2802 33.1915 66.946C33.013 67.4587 32.7837 67.9453 32.5543 68.432C32.3249 68.9186 32.0955 69.4053 31.7897 69.8665C31.5092 70.3017 31.1779 70.7121 30.7956 71.0958C30.2349 71.634 29.6232 72.1466 29.0114 72.6587C28.3997 73.1708 27.7625 73.5812 26.9469 73.6835C26.4964 73.7543 26.0537 73.8642 25.6101 73.9742C25.2507 74.0634 24.8907 74.1527 24.5256 74.2216C24.0413 74.2984 23.5315 74.2984 23.0473 74.2724C22.9199 74.2724 22.7924 74.1187 22.7924 74.1187H21.8239C21.3906 74.1187 21.0337 74.0164 20.6259 73.8118C20.5316 73.7643 20.4373 73.6917 20.3387 73.616C20.0644 73.4051 19.7573 73.1689 19.3261 73.376C19.2445 73.4089 19.1001 73.2947 18.9399 73.1678C18.85 73.0966 18.755 73.0215 18.6634 72.9662C18.4871 73.1825 18.2656 73.0513 18.0452 72.9207C17.9788 72.8814 17.9126 72.8421 17.8478 72.8125C17.7709 72.7866 17.6875 72.7737 17.6042 72.7609C17.5219 72.7481 17.4395 72.7354 17.3635 72.7102C17.1851 72.6587 17.0067 72.6011 16.8283 72.5434C16.6499 72.4857 16.4714 72.4281 16.293 72.3766C16.1683 72.3376 16.0365 72.3081 15.9049 72.2787C15.6058 72.2118 15.3074 72.1451 15.0951 71.9669C14.9919 71.8839 14.8646 71.8177 14.7357 71.7507C14.4247 71.589 14.1044 71.4225 14.0916 71.0037C14.09 70.953 14.093 70.8985 14.101 70.8398C14.101 70.8261 14.0863 70.8198 14.0607 70.8089C14.0388 70.7995 14.0089 70.7867 13.9736 70.7629C13.9662 70.7816 13.9587 70.8003 13.9511 70.8192C13.9484 70.8261 13.9457 70.8329 13.9429 70.8398C13.9338 70.8622 13.9245 70.8851 13.9145 70.9088C13.9088 70.9225 13.9029 70.9364 13.8968 70.9507C13.895 70.955 13.8932 70.9592 13.8913 70.9635C13.8822 70.9847 13.8725 71.0066 13.8622 71.0295C13.8363 71.0868 13.8063 71.1505 13.7697 71.2242C13.7222 71.1695 13.6711 71.1204 13.6207 71.0738C13.6067 71.0609 13.5927 71.0481 13.5789 71.0355C13.4559 70.9231 13.3446 70.8214 13.311 70.6861C13.1835 70.2509 12.9286 70.2509 12.5718 70.3278C12.3679 70.3786 11.96 70.2763 11.9346 70.174C11.8273 69.8325 11.5818 69.7685 11.3481 69.7076C11.2488 69.6817 11.1516 69.6563 11.068 69.6105C11.0299 69.5592 10.9981 69.4953 10.9663 69.4314C10.9344 69.3671 10.9025 69.3028 10.8641 69.2515C10.8211 69.2084 10.7598 69.1742 10.6977 69.1396C10.6127 69.0922 10.526 69.0439 10.4818 68.9701C10.2779 68.6366 10.0485 68.4828 9.64067 68.5857C9.56423 68.6111 9.41128 68.4574 9.33484 68.3297C9.26151 68.2117 9.20717 68.0767 9.1524 67.9408C9.01675 67.604 8.87849 67.2607 8.44277 67.1512C7.74022 66.9704 7.25759 66.4844 6.77337 65.9968C6.5022 65.7237 6.23053 65.4502 5.91945 65.2294C5.69006 65.0502 5.51164 64.7688 5.35871 64.5121C5.33 64.4688 5.34982 64.3931 5.38171 64.3123C5.3947 64.2794 5.40968 64.2457 5.42421 64.2131C5.43734 64.1836 5.45009 64.1549 5.46065 64.1284C5.46065 64.1284 5.46065 64.1284 5.46065 64.1284C5.39495 64.1032 5.3329 64.079 5.27439 64.0556C4.49555 63.7439 4.34318 63.5745 4.55332 63.1553C4.58464 63.0928 4.624 63.0248 4.67054 62.9499C4.5846 62.9589 4.5083 62.9567 4.4402 62.9447C4.12455 62.8893 3.98524 62.6254 3.88041 62.3093C3.84755 62.2102 3.74054 62.1324 3.6345 62.0554C3.57605 62.0129 3.51789 61.9706 3.47261 61.9251C3.37066 61.8482 3.26871 61.7457 3.21773 61.6433C2.88639 60.9773 2.58054 60.3112 2.30017 59.6451C2.21773 59.4449 2.12417 59.2428 2.02999 59.0393C1.77476 58.4879 1.51492 57.9265 1.45907 57.3652C1.42733 56.9505 1.29676 56.6152 1.16583 56.279C1.08649 56.0752 1.00701 55.8712 0.949312 55.6489C0.949312 55.636 0.942932 55.6296 0.936556 55.6232C0.930187 55.6168 0.923823 55.6104 0.923823 55.5976C1.05301 55.1594 0.916191 54.7726 0.779129 54.3851C0.699855 54.161 0.620499 53.9366 0.59248 53.7019C0.59248 53.6763 0.586815 53.6478 0.58115 53.6194C0.569824 53.5624 0.558498 53.5055 0.59248 53.4714C0.823081 53.1734 0.776921 52.8647 0.729164 52.5453C0.703021 52.3705 0.676401 52.1924 0.694433 52.0112C0.719801 52.0112 0.770416 51.9858 0.821151 51.9603C1.15769 51.9227 1.33037 51.9031 1.39439 51.9772C1.46128 52.0546 1.41033 52.2338 1.30614 52.6004C1.25516 52.7541 1.28065 52.9334 1.30614 53.0871C1.33536 53.275 1.36056 53.4643 1.38573 53.6534C1.47035 54.2891 1.55468 54.9226 1.79042 55.4951C1.8875 55.7321 1.89402 55.9615 1.90032 56.1833C1.90561 56.3691 1.91074 56.5496 1.96883 56.7248C2.00984 56.8691 2.16636 56.9967 2.31889 57.1212C2.35593 57.1514 2.39274 57.1814 2.42761 57.2115C2.45634 57.2331 2.4866 57.2538 2.51652 57.2742C2.69889 57.3987 2.86877 57.5146 2.60602 57.8007C2.55505 57.8519 2.55505 58.0313 2.60602 58.1337C2.68605 58.2704 2.72838 58.4324 2.7709 58.5951C2.86379 58.9505 2.95753 59.3091 3.44712 59.4146C3.51509 59.4317 3.56041 59.5171 3.60572 59.6025C3.62056 59.6304 3.6354 59.6584 3.65104 59.684C3.65927 59.6974 3.66772 59.7102 3.67651 59.722C3.63833 59.7476 3.60014 59.7668 3.56195 59.786C3.54119 59.7964 3.52043 59.8068 3.49967 59.8183C3.48216 59.828 3.46464 59.8384 3.44712 59.8501C3.47261 59.9013 3.47261 59.9269 3.47261 59.9526C3.85493 60.2599 4.05883 60.6186 4.16078 61.1309C4.19472 61.3356 4.37555 61.5062 4.56033 61.6806C4.65307 61.7681 4.74681 61.8565 4.82347 61.9507C4.85899 61.9864 4.91652 62.0055 4.9705 62.0235C5.0327 62.0441 5.09019 62.0632 5.10384 62.1044C5.25669 62.6335 5.62456 62.992 5.9963 63.3543C6.18245 63.5357 6.36957 63.718 6.53115 63.9232C6.63311 64.0515 6.76054 64.2307 6.78602 64.3844C6.82176 64.8514 7.13328 65.0414 7.43929 65.2282C7.56963 65.3077 7.69897 65.3866 7.80556 65.4861C7.95575 65.618 8.07826 65.7641 8.20369 65.9137C8.24855 65.9672 8.29378 66.0211 8.34078 66.075C8.38736 66.1312 8.42712 66.1976 8.46629 66.2631C8.53433 66.3767 8.60058 66.4874 8.69764 66.5362C9.4423 66.8101 10.0446 67.2921 10.6522 67.7783C10.8971 67.9744 11.143 68.1711 11.3993 68.3551C11.8581 68.6626 12.3169 68.9441 12.8012 69.2261C13.7443 69.7642 14.6618 70.2763 15.6048 70.7884C15.708 70.8404 15.8112 70.8858 15.9144 70.9313C16.0151 70.9756 16.1158 71.0199 16.2166 71.0704C16.4618 71.18 16.7038 71.296 16.9449 71.4116C17.3803 71.6204 17.8127 71.8277 18.2556 71.9929C18.7058 72.1604 19.167 72.2841 19.6247 72.407C19.8667 72.4719 20.1076 72.5365 20.3456 72.6073C20.4221 72.633 20.4985 72.6843 20.575 72.7356C20.6515 72.7869 20.7279 72.8382 20.8043 72.8639C21.1612 72.9662 21.518 73.0431 21.9003 73.1199C22.1552 73.1708 22.4101 73.1708 22.665 73.1708C22.9963 73.1708 23.3532 73.1454 23.6845 73.0945C24.1941 73.0431 24.7041 72.9916 25.2138 72.8893C25.6471 72.8125 26.0804 72.7102 26.4627 72.5304C26.5642 72.484 26.6691 72.4385 26.7752 72.3924C27.255 72.1841 27.7599 71.9649 28.0939 71.6085C28.3579 71.3052 28.6637 71.0439 28.9688 70.7833C29.4886 70.3394 30.0062 69.8972 30.3113 69.2515C30.4174 69.0253 30.5716 68.8265 30.7239 68.6302C30.8646 68.4489 31.0036 68.2698 31.1015 68.073C31.2411 67.7768 31.3336 67.4614 31.4248 67.1502C31.4834 66.9502 31.5414 66.752 31.6112 66.5616C31.7192 66.2472 31.8362 65.9418 31.9527 65.6379C32.1114 65.224 32.2691 64.8126 32.4013 64.3844C32.5111 63.9903 32.592 63.5863 32.6736 63.1787C32.7246 62.924 32.7758 62.6678 32.8346 62.4118C32.87 62.2697 32.9162 62.1276 32.9633 61.983C33.018 61.8148 33.0739 61.6431 33.115 61.464C33.2679 60.8748 33.3954 60.2855 33.5228 59.6964C33.5535 59.5577 33.5565 59.4098 33.5595 59.2582C33.5616 59.1577 33.5636 59.0556 33.5738 58.9535C33.612 58.6589 33.663 58.3643 33.714 58.0697C33.765 57.7751 33.8159 57.4805 33.8542 57.1859C34.28 57.1645 34.3856 57.1073 34.3346 56.8054C34.3246 56.7459 34.3084 56.6768 34.2875 56.5967C34.2279 56.6366 34.1681 56.6766 34.1085 56.7044C34.0917 56.7122 34.0749 56.7191 34.0581 56.7248C33.9816 56.7504 33.8542 56.776 33.8032 56.7504C33.7522 56.7248 33.7267 56.5967 33.7522 56.4942C33.7698 56.2912 33.7903 56.0882 33.8108 55.8863C33.8498 55.5021 33.8884 55.1217 33.9051 54.7522C33.9165 54.5586 33.9303 54.365 33.9442 54.1713C33.9926 53.4939 34.0411 52.8166 33.9816 52.1393L33.9051 50.9096C33.8924 50.5766 33.8733 50.2436 33.8542 49.9105C33.835 49.5775 33.8159 49.2445 33.8032 48.9115C33.7906 48.5692 33.7842 48.227 33.7779 47.8878C33.7715 47.5416 33.7651 47.1986 33.7522 46.8621C33.7459 46.7732 33.7427 46.686 33.7395 46.5995C33.7299 46.3369 33.7206 46.0816 33.6248 45.8118C33.5376 45.5665 33.5935 45.2733 33.6538 44.9568C33.6693 44.8757 33.685 44.7932 33.6987 44.7095C33.707 44.6594 33.7144 44.6088 33.7207 44.5579C33.7228 44.5404 33.7249 44.5229 33.7267 44.5053C33.7982 44.534 33.8616 44.5587 33.9193 44.5811C33.9259 44.5837 33.9325 44.5862 33.939 44.5887C34.0772 44.6423 34.1823 44.683 34.2875 44.7359C34.0799 44.6151 33.9168 44.4837 33.7922 44.3423C33.7806 44.3291 33.7693 44.3159 33.7584 44.3025C33.3385 43.7904 33.4025 43.1501 33.6757 42.4047C33.2691 42.1322 33.3355 41.7693 33.4032 41.3985C33.4374 41.2114 33.472 41.0224 33.4463 40.842C33.3869 40.4685 33.3881 40.0775 33.3894 39.6844C33.3902 39.4035 33.3911 39.1215 33.3699 38.8439C33.3572 38.703 33.3189 38.5621 33.2807 38.4212C33.2425 38.2803 33.2042 38.1394 33.1915 37.9985C33.1735 37.8719 33.219 37.7453 33.2743 37.5916C33.2972 37.5276 33.3219 37.459 33.3444 37.3837C32.9621 37.2043 32.9111 36.8713 33.064 36.359C33.1367 36.0853 33.0799 35.7725 33.0229 35.4579C32.9998 35.3308 32.9767 35.2034 32.9621 35.0782C32.9112 34.567 32.8858 34.0559 32.8603 33.5448L32.8601 33.5411C32.8601 33.5155 32.8573 33.487 32.8544 33.4585C32.8488 33.4016 32.8431 33.3447 32.8601 33.3105C33.1746 32.8469 33.0752 32.4007 32.9733 31.9432C32.9513 31.8446 32.9292 31.7454 32.9111 31.6454C32.8431 31.2013 32.8431 30.7458 32.8431 30.2866C32.8431 30.057 32.8431 29.8265 32.8346 29.596C32.8346 29.4998 32.8046 29.4136 32.776 29.3312C32.768 29.308 32.76 29.2852 32.7529 29.2626C32.7502 29.2542 32.7477 29.2458 32.7453 29.2374C32.7404 29.2203 32.7361 29.2032 32.7327 29.1862C32.7072 29.1862 32.6817 29.1798 32.6562 29.1734C32.6307 29.167 32.6052 29.1606 32.5798 29.1606C32.5702 29.1812 32.5606 29.2018 32.551 29.2223C32.5475 29.2297 32.5441 29.237 32.5406 29.2444C32.3751 29.5973 32.2081 29.9315 32.019 30.2877C31.9522 30.4124 31.8889 30.5408 31.8252 30.6701C31.7189 30.8859 31.6113 31.1041 31.4838 31.3124C31.0509 32.0034 30.5925 32.6688 30.1342 33.3343L30.1329 33.3361C30.0577 33.4388 29.9835 33.5415 29.9096 33.6439C29.6329 34.0271 29.3587 34.4069 29.0369 34.7707C28.5952 35.3 28.1309 35.8066 27.6666 36.3131C27.4342 36.5665 27.2019 36.82 26.9724 37.0763C26.896 37.1531 26.743 37.2299 26.6411 37.2299C26.3607 37.2043 26.1568 37.2043 26.1823 37.563C26.1823 37.6142 26.1313 37.6911 26.0804 37.7167C25.9275 37.8191 25.7747 37.9243 25.6219 38.0296C25.316 38.2403 25.01 38.451 24.704 38.6389C24.1437 38.9461 23.5581 39.2276 22.9723 39.5092L22.9708 39.5099C22.1807 39.8942 21.3396 39.9454 20.524 39.6124C20.1927 39.4587 20.1671 39.305 20.3965 39.0488C20.6769 38.7158 20.9828 38.5365 21.4416 38.5621C21.9258 38.5877 22.3846 38.5365 22.8179 38.1778C23.0557 37.9687 23.337 37.8292 23.6211 37.6883C23.8241 37.5876 24.0286 37.4862 24.2198 37.3581C24.704 37.0507 25.1883 36.692 25.6471 36.3334C25.7505 36.2572 25.8539 36.1847 25.9563 36.1129C26.2325 35.9193 26.5013 35.7309 26.743 35.488C26.8755 35.3716 26.9649 35.2011 27.0532 35.0327C27.1008 34.9418 27.1482 34.8516 27.2018 34.7707C27.3292 34.5915 27.4568 34.412 27.6096 34.2327C27.7116 34.1047 27.8263 33.983 27.941 33.8613C28.0557 33.7396 28.1704 33.618 28.2723 33.4899C28.5527 33.1568 28.833 32.7982 29.088 32.4395L29.0887 32.4384C29.2413 32.2082 29.394 31.978 29.5212 31.7223C29.6104 31.5557 29.6869 31.3892 29.7633 31.2227C29.8398 31.0562 29.9163 30.8897 30.0055 30.7232C30.0656 30.6264 30.1541 30.5468 30.2416 30.4682C30.3394 30.3802 30.4359 30.2934 30.4898 30.1852C30.579 30.0187 30.6427 29.8394 30.7064 29.6601C30.7701 29.4807 30.8339 29.3014 30.9231 29.1349C31.0376 28.9211 31.1836 28.7285 31.3342 28.5299C31.4182 28.419 31.5036 28.3063 31.5858 28.1871C31.6112 28.1359 31.6367 28.0845 31.6367 28.059C31.6083 27.6163 31.7779 27.2372 31.9469 26.8597C32.0809 26.5601 32.2146 26.2615 32.2484 25.9327V25.8815C32.6932 25.3674 32.7499 24.7362 32.8079 24.0901C32.8164 23.9958 32.8249 23.9011 32.8346 23.8065C32.8346 23.7809 32.8474 23.7489 32.8601 23.7168C32.8729 23.6848 32.8856 23.6528 32.8856 23.6272V22.0389C32.8856 21.9024 32.9124 21.7748 32.9396 21.6456C32.9583 21.5566 32.9772 21.4669 32.9876 21.3729C33.0217 21.0408 33.061 20.7087 33.1008 20.372C33.1501 19.9555 33.2002 19.5321 33.2424 19.0929C33.3571 19.1057 33.4718 19.1121 33.5865 19.1185C33.7012 19.1249 33.8159 19.1313 33.9306 19.1441C33.3779 18.9334 33.438 18.6081 33.5035 18.2539C33.5256 18.1344 33.5483 18.0117 33.5483 17.8889C33.5364 17.5666 33.6131 17.2665 33.6881 16.9731C33.774 16.6369 33.8576 16.3096 33.8032 15.9676C33.7889 15.896 33.7587 15.8244 33.7304 15.7572C33.7081 15.7043 33.687 15.6541 33.6757 15.609C33.703 15.5542 33.7399 15.5027 33.7762 15.4521C33.8418 15.3607 33.9051 15.2724 33.9051 15.1734C33.8796 14.6867 34.211 14.3537 34.5678 14.3793C34.8992 14.405 35.358 14.6867 35.5363 14.9942C35.7181 15.2987 35.7719 15.6837 35.8244 16.0598C35.8382 16.1583 35.8518 16.2562 35.8677 16.3519C35.8932 16.5312 35.9187 16.7105 35.8932 16.8898C35.8932 17.0435 35.8804 17.1908 35.8677 17.3382C35.855 17.4854 35.8422 17.6327 35.8422 17.7864C35.8327 17.9017 35.8339 18.0207 35.835 18.1392C35.837 18.3365 35.839 18.5326 35.7913 18.7087C35.7556 18.8696 35.6332 19.0055 35.5018 19.1513C35.4449 19.2144 35.3864 19.2794 35.3325 19.3491C35.6165 19.9042 35.4609 20.4495 35.3012 21.0093C35.2431 21.2129 35.1844 21.4184 35.1462 21.6269ZM32.6349 23.7931C32.6367 23.7559 32.6455 23.7242 32.6518 23.7041C32.6589 23.6816 32.6676 23.6596 32.6734 23.6451L32.6743 23.6428C32.6801 23.6283 32.6835 23.6197 32.6856 23.6134M32.6349 23.7931C32.6251 23.8895 32.6164 23.984 32.6079 24.0768C32.5482 24.728 32.4968 25.2887 32.0972 25.7507L32.0484 25.807V25.9213C32.0165 26.2121 31.8981 26.4781 31.7642 26.7781C31.7469 26.8168 31.7294 26.856 31.7118 26.8959C31.5649 27.2288 31.4159 27.6031 31.4353 28.0384C31.4298 28.0511 31.4224 28.0662 31.413 28.0853C31.3361 28.1961 31.2576 28.2997 31.1775 28.4054C31.1436 28.4501 31.1094 28.4952 31.075 28.5414C30.9588 28.6971 30.8432 28.8604 30.7468 29.0404M34.7091 62.7488C34.7764 62.5223 34.803 62.2799 34.8269 62.0619C34.8322 62.0132 34.8374 61.9658 34.8429 61.9201C34.8745 61.6558 34.9161 61.4365 35.0208 61.2576C35.282 60.8111 35.4815 60.3897 35.4815 59.7988C35.4815 59.2953 35.5476 58.7904 35.6151 58.2747C35.6491 58.0154 35.6834 57.7534 35.7099 57.4875L35.7103 57.4819C35.7279 57.2346 35.722 56.9906 35.7163 56.7543C35.7136 56.6409 35.7109 56.5293 35.7108 56.42C35.7208 56.0516 35.7389 55.6764 35.7571 55.2988C35.7848 54.7247 35.8128 54.1448 35.8128 53.5738C35.8128 53.006 35.7899 52.4348 35.7671 51.8683C35.7558 51.5879 35.7446 51.3087 35.7363 51.0317L35.7361 51.0278C35.7261 50.8272 35.7241 50.6273 35.7221 50.4228C35.7216 50.3711 35.721 50.3191 35.7204 50.2667C35.7172 50.0096 35.7108 49.7462 35.6844 49.4809L35.6843 49.4799C35.6581 49.2298 35.6189 48.9874 35.5775 48.7406C35.5721 48.709 35.5668 48.6773 35.5614 48.6455C35.5299 48.4584 35.4976 48.2674 35.4683 48.0635C35.4753 48.0563 35.4825 48.0487 35.4898 48.0408C35.512 48.0164 35.5386 47.9843 35.5606 47.9472C35.5809 47.9129 35.6089 47.8554 35.6089 47.7843L35.6087 47.7744C35.5829 47.2556 35.5312 46.7361 35.4536 46.2419L35.4528 46.2373C35.4393 46.1626 35.4254 46.0899 35.4118 46.0189C35.318 45.5287 35.2398 45.1197 35.4139 44.6877C35.4334 44.6446 35.4389 44.6027 35.4408 44.5742C35.4429 44.542 35.4413 44.511 35.4395 44.4868C35.4374 44.4602 35.4355 44.4416 35.4339 44.4268C35.4319 44.4071 35.4305 44.3939 35.4305 44.3772L35.4303 44.3695C35.4175 44.0345 35.3983 43.7062 35.3792 43.3802C35.3601 43.0533 35.3411 42.7277 35.3284 42.397L35.3278 42.3866C35.3206 42.3075 35.3154 42.2226 35.31 42.135C35.2981 41.9418 35.2854 41.7357 35.2493 41.5514C35.2194 41.3421 35.178 41.135 35.138 40.9352C35.1257 40.8736 35.1135 40.8127 35.1019 40.7527C35.0513 40.4922 35.009 40.2412 34.997 39.9872L34.9965 39.9801C34.9461 39.3723 34.9406 38.7706 34.9351 38.1605C34.9322 37.8521 34.9294 37.5416 34.9207 37.2271C34.9204 37.0646 34.891 36.9072 34.8587 36.7609C34.8487 36.7157 34.8386 36.6721 34.8286 36.6294C34.8075 36.5384 34.7872 36.4512 34.7709 36.3601C34.7773 36.3257 34.7841 36.29 34.7912 36.2531C34.8383 36.0064 34.8953 35.708 34.8953 35.4112L34.8952 35.4057C34.8783 34.794 34.8389 34.1902 34.7995 33.5872C34.7793 33.2779 34.7591 32.9689 34.742 32.659L34.742 32.658C34.691 31.8125 34.6402 30.9443 34.6148 30.1023L34.6146 30.0973C34.5979 29.796 34.6035 29.5123 34.6091 29.2238C34.612 29.0768 34.6149 28.9286 34.6149 28.7763C34.6149 28.7498 34.6166 28.727 34.6188 28.6973C34.6205 28.6756 34.6224 28.6503 34.6242 28.617C34.6276 28.5518 34.6285 28.4709 34.6123 28.3853C34.6077 28.3513 34.6032 28.3174 34.5986 28.2837C34.4747 27.3673 34.3599 26.5185 34.7194 25.6938C34.7935 25.5717 34.7934 25.4501 34.7933 25.3786C34.8311 24.9866 34.8752 24.5944 34.9195 24.2003C34.964 23.8036 35.0089 23.4047 35.0473 23.0059L35.0475 23.0033C35.0625 22.8226 35.0858 22.647 35.1133 22.4403C35.128 22.3293 35.144 22.2092 35.1605 22.0746L35.303 22.0645H35.1617" fill="currentColor"/>
</g>
<defs>
<clipPath id="clip0_1680_404">
<rect width="58.8606" height="74.9998" fill="white" transform="translate(0.569824)"/>
</clipPath>
</defs>
</svg>
