<svg width="16" height="16" viewBox="0 0 16 16" fill="none" xmlns="http://www.w3.org/2000/svg">
<g clip-path="url(#clip0_1453_201)">
<mask id="mask0_1453_201" style="mask-type:luminance" maskUnits="userSpaceOnUse" x="0" y="0" width="16" height="16">
<path d="M16 0H0V16H16V0Z" fill="white"/>
</mask>
<g mask="url(#mask0_1453_201)">
<path fill-rule="evenodd" clip-rule="evenodd" d="M5.35148 11.7401C5.35637 11.7359 5.3637 11.7361 5.36824 11.7407C5.37301 11.7454 5.3809 11.7453 5.38568 11.7405C6.04799 11.0829 6.52948 11.1372 7.33131 11.9391L8.60344 13.2112C9.92691 14.5347 11.1632 14.468 12.6405 12.9906C12.8898 12.7413 12.8898 12.3371 12.6405 12.0878L12.3635 11.8108C12.236 11.6833 12.0293 11.6833 11.9018 11.8108C11.0657 12.647 10.4809 12.6572 9.68071 11.857L8.18797 10.3642C7.44635 9.62267 6.70948 9.52431 6.00036 10.0647C5.95449 10.0997 5.88941 10.0971 5.84863 10.0563C5.808 10.0156 5.80521 9.95084 5.84011 9.90519C6.39768 9.17595 6.31525 8.49156 5.59745 7.77376L4.25861 6.43491C3.44299 5.6193 3.44811 5.0499 4.29451 4.20351C4.422 4.07602 4.422 3.86933 4.29451 3.74184L4.02264 3.46996C3.77333 3.22066 3.36912 3.22066 3.11981 3.46996C1.63734 4.95244 1.55527 6.16304 2.84795 7.45569L3.95083 8.55863C4.75515 9.36292 4.80735 9.85515 4.14832 10.5156C4.14693 10.517 4.14688 10.5193 4.14827 10.5207C4.1496 10.522 4.14966 10.5241 4.14843 10.5255C3.85559 10.8622 3.86935 11.3731 4.18971 11.6935C4.50812 12.0119 5.01472 12.0274 5.35148 11.7401Z" fill="currentColor"/>
<path d="M8.79577 8.29919C9.1305 7.96445 9.1305 7.42172 8.79577 7.08699C8.46104 6.75225 7.9183 6.75225 7.58357 7.08699C7.24884 7.42172 7.24884 7.96445 7.58357 8.29919C7.9183 8.63392 8.46104 8.63392 8.79577 8.29919Z" fill="currentColor"/>
<pathcurrentColor="M10.816 6.27915C11.1508 5.94441 11.1508 5.4017 10.816 5.06697C10.4813 4.73223 9.93857 4.73223 9.60383 5.06697C9.2691 5.4017 9.2691 5.94441 9.60383 6.27915C9.93857 6.61389 10.4813 6.61389 10.816 6.27915Z" fill="currentColor"/>
<pathcurrentColor="M12.8365 4.25865C13.1713 3.92391 13.1713 3.3812 12.8365 3.04647C12.5018 2.71173 11.9591 2.71173 11.6243 3.04647C11.2896 3.3812 11.2896 3.92391 11.6243 4.25865C11.9591 4.59338 12.5018 4.59338 12.8365 4.25865Z" fill="currentColor"/>
<currentColor>
</g>
<defs>
<clipPath id="clip0_1453_201">
<rect width="16" height="16" fill="white"/>
</clipPath>
</defs>
</svg>
