<svg width="16" height="17" viewBox="0 0 16 17" fill="none" xmlns="http://www.w3.org/2000/svg">
<path fill-rule="evenodd" clip-rule="evenodd" d="M2 3.25C2 3.05109 2.07902 2.86032 2.21967 2.71967C2.36032 2.57902 2.55109 2.5 2.75 2.5C8.963 2.5 14 7.537 14 13.75C14 13.9489 13.921 14.1397 13.7803 14.2803C13.6397 14.421 13.4489 14.5 13.25 14.5C13.0511 14.5 12.8603 14.421 12.7197 14.2803C12.579 14.1397 12.5 13.9489 12.5 13.75C12.5 8.365 8.135 4 2.75 4C2.55109 4 2.36032 3.92098 2.21967 3.78033C2.07902 3.63968 2 3.44891 2 3.25ZM2 7.75C2 7.55109 2.07902 7.36032 2.21967 7.21967C2.36032 7.07902 2.55109 7 2.75 7C3.63642 7 4.51417 7.17459 5.33311 7.51381C6.15206 7.85303 6.89618 8.35023 7.52297 8.97703C8.14977 9.60382 8.64697 10.3479 8.98619 11.1669C9.32541 11.9858 9.5 12.8636 9.5 13.75C9.5 13.9489 9.42098 14.1397 9.28033 14.2803C9.13968 14.421 8.94891 14.5 8.75 14.5C8.55109 14.5 8.36032 14.421 8.21967 14.2803C8.07902 14.1397 8 13.9489 8 13.75C8 10.85 5.65 8.5 2.75 8.5C2.55109 8.5 2.36032 8.42098 2.21967 8.28033C2.07902 8.13968 2 7.94891 2 7.75ZM3.5 11.5C3.30302 11.5 3.10796 11.5388 2.92597 11.6142C2.74399 11.6896 2.57863 11.8001 2.43934 11.9393C2.30005 12.0786 2.18956 12.244 2.11418 12.426C2.0388 12.608 2 12.803 2 13C2 13.197 2.0388 13.392 2.11418 13.574C2.18956 13.756 2.30005 13.9214 2.43934 14.0607C2.57863 14.1999 2.74399 14.3104 2.92597 14.3858C3.10796 14.4612 3.30302 14.5 3.5 14.5C3.89782 14.5 4.27936 14.342 4.56066 14.0607C4.84196 13.7794 5 13.3978 5 13C5 12.6022 4.84196 12.2206 4.56066 11.9393C4.27936 11.658 3.89782 11.5 3.5 11.5Z" fill="currentColor"/>
</svg>
