<?xml version="1.0" encoding="utf-8"?>
<!-- Generator: Adobe Illustrator 16.0.0, SVG Export Plug-In . SVG Version: 6.00 Build 0)  -->
<!DOCTYPE svg PUBLIC "-//W3C//DTD SVG 1.1//EN" "http://www.w3.org/Graphics/SVG/1.1/DTD/svg11.dtd">
<svg version="1.1" id="Layer_3" xmlns="http://www.w3.org/2000/svg" xmlns:xlink="http://www.w3.org/1999/xlink" x="0px" y="0px"
	 width="144px" height="144px" viewBox="0 0 144 144" enable-background="new 0 0 144 144" xml:space="preserve">
<path fill="#231F20" d="M52.877,106.027l-5.657,5.658c-2.081,2.082-3.525,4.554-4.356,7.179c0,0-2.833,10.735,4.356,17.924
	c6.932,6.932,18.171,6.932,25.103,0l47.729-47.729c6.933-6.932,6.933-18.172,0-25.104L91.18,35.083l2.771-2.77
	c6.932-6.932,6.932-18.17,0-25.103c-6.933-6.932-18.173-6.931-25.103,0L23.945,52.113l0,0c-0.195,0.195-0.364,0.404-0.548,0.605
	c-0.225,0.247-0.462,0.486-0.67,0.742c-5.634,6.908-5.278,17.062,1.05,23.569c0.001,0,0.002,0.002,0.003,0.003L52.877,106.027z
	 M65.958,118.891c2.424,2.424,2.998,5.989,1.734,8.961l-1.977,1.977c-3.187,3.188-8.35,3.188-11.536,0.002
	c-3.185-3.186-3.186-8.35,0.001-11.535l5.59-5.592L65.958,118.891z M30.905,70.255c-1.549-1.549-2.338-3.564-2.381-5.594
	c0.044-2.027,0.834-4.041,2.381-5.588c3.167-3.167,8.288-3.183,11.478-0.052c2.708,2.759,3.048,6.96,1.04,10.095l6.862,6.862
	l34.119-34.12l29.283,29.301c1.486,1.486,2.271,3.4,2.369,5.349c-0.1,1.945-0.883,3.861-2.369,5.347l-37.01,37.01
	c-0.83-2.625-2.273-5.098-4.354-7.178L30.905,70.255z M87.585,25.111l-34.37,34.37c-0.775-2.75-2.227-5.348-4.354-7.535
	c-2.043-1.987-4.443-3.381-6.993-4.188L76.05,13.575c3.185-3.185,8.351-3.185,11.534,0C90.77,16.761,90.77,21.926,87.585,25.111z"/>
</svg>
