<svg xmlns="http://www.w3.org/2000/svg" width="18" height="18" viewBox="0 0 18 18">
  <path fill="#000000" d="M7.87725,18.564 C7.87725,19.9095 6.78525,21 5.439,21 C4.092,21 3,19.9095 3,18.564 C3,17.2185 4.092,16.128 5.439,16.128 C6.78525,16.12875 7.87725,17.2185 7.87725,18.564 Z M3,9.135 L3,12.74325 C7.5375,12.78975 11.22,16.46775 11.2665,21 L14.87925,21 C14.83275,14.4675 9.54075,9.1815 3,9.135 Z M3,6.609 C10.935,6.6435 17.364,13.0545 17.38725,21 L21,21 C20.9775,11.07675 12.93375,3.0345 3,3 L3,6.609 Z" transform="translate(-3 -3)"/>
</svg>
