<svg xmlns="http://www.w3.org/2000/svg" width="21" height="22" viewBox="0 0 21 22">
  <g fill="none" fill-rule="evenodd" transform="translate(-1 -1)">
    <rect width="24" height="24"/>
    <g fill="#000000" fill-rule="nonzero" transform="translate(1)">
      <path d="M6.33821461,18.3076294 C5.74387791,18.8285588 4.83900569,18.8055632 4.27208514,18.2386427 C3.70516459,17.6717221 3.68216902,16.7668499 4.19448968,16.1639045 C5.36260089,14.9957933 5.27204962,14.1265012 3.85039491,12.7048465 L1.90354289,10.7579945 C-0.378348756,8.47610283 -0.233466742,6.33909318 2.38346456,3.72216188 L3.18031561,2.92531083 L4.86456897,4.60956419 L4.45708832,5.01704484 C2.9629926,6.51114056 2.95393748,7.51625951 4.39370245,8.95602447 L6.75709023,11.3194123 C8.07008345,12.6324055 8.17874495,13.8820128 7.07401963,15.2221714 L7.32756314,15.4757149 C8.62244611,14.398155 9.97165982,14.5339818 11.3299287,15.8922507 L13.9649702,18.5272922 C15.3775698,19.9398918 16.4098541,19.9217816 17.8858396,18.4457961 L18.2933203,18.0383155 L19.9866287,19.7316239 L19.1897777,20.528475 C16.5819015,23.1363512 14.3996162,23.2540678 12.0633938,20.9178454 L9.81772266,18.6721742 C8.39606795,17.2505195 7.54488615,17.1599683 6.33821461,18.3076294 Z"/>
      <g transform="rotate(-45 17.536 -6.364)">
        <circle cx="1.513" cy="1.513" r="1.513"/>
        <circle cx="6.557" cy="1.513" r="1.513"/>
        <circle cx="11.6" cy="1.513" r="1.513"/>
      </g>
    </g>
  </g>
</svg>
