<?xml version="1.0" encoding="UTF-8" standalone="no"?>
<svg width="14px" height="14px" viewBox="0 0 14 14" version="1.1" xmlns="http://www.w3.org/2000/svg" xmlns:xlink="http://www.w3.org/1999/xlink">
    <!-- Generator: Sketch 39.1 (31720) - http://www.bohemiancoding.com/sketch -->
    <title>icon-light-accent</title>
    <desc>Created with Sketch.</desc>
    <defs></defs>
    <g id="Page-1" stroke="none" stroke-width="1" fill="none" fill-rule="evenodd">
        <g id="Desktop-HD" transform="translate(-1071.000000, -101.000000)" fill="#C02702">
            <g id="Brightness" transform="translate(984.000000, 88.000000)">
                <g id="icon-light-accent" transform="translate(87.000000, 13.000000)">
                    <path d="M7,5.25 C7.96483333,5.25 8.75,6.03516667 8.75,7 C8.75,7.96483333 7.96483333,8.75 7,8.75 C6.03516667,8.75 5.25,7.96483333 5.25,7 C5.25,6.03516667 6.03516667,5.25 7,5.25 L7,5.25 Z M7,4.08333333 C5.38883333,4.08333333 4.08333333,5.38883333 4.08333333,7 C4.08333333,8.61116667 5.38883333,9.91666667 7,9.91666667 C8.61116667,9.91666667 9.91666667,8.61116667 9.91666667,7 C9.91666667,5.38883333 8.61116667,4.08333333 7,4.08333333 L7,4.08333333 Z M4.55933333,3.73391667 L2.46341667,1.63741667 L1.638,2.46225 L3.73508333,4.55933333 C3.969,4.24608333 4.24608333,3.96841667 4.55933333,3.73391667 L4.55933333,3.73391667 Z M7,2.91666667 C7.19833333,2.91666667 7.392,2.93591667 7.58333333,2.96333333 L7.58333333,0 L6.41666667,0 L6.41666667,2.96333333 C6.608,2.93591667 6.80166667,2.91666667 7,2.91666667 L7,2.91666667 Z M10.2655,4.55875 L12.3625833,2.46166667 L11.53775,1.63683333 L9.44066667,3.73391667 C9.75391667,3.96841667 10.031,4.24608333 10.2655,4.55875 L10.2655,4.55875 Z M2.91666667,7 C2.91666667,6.80166667 2.93591667,6.608 2.96333333,6.41666667 L0,6.41666667 L0,7.58333333 L2.96333333,7.58333333 C2.93591667,7.392 2.91666667,7.19833333 2.91666667,7 L2.91666667,7 Z M9.44125,10.2655 L11.53775,12.3614167 L12.3631667,11.5365833 L10.2666667,9.44066667 C10.0315833,9.75333333 9.75391667,10.031 9.44125,10.2655 L9.44125,10.2655 Z M3.73391667,9.44066667 L1.638,11.5365833 L2.46283333,12.3614167 L4.55875,10.2655 C4.24608333,10.031 3.969,9.75391667 3.73391667,9.44066667 L3.73391667,9.44066667 Z M11.0366667,6.41666667 C11.0640833,6.608 11.0833333,6.80166667 11.0833333,7 C11.0833333,7.19833333 11.0640833,7.392 11.0366667,7.58333333 L14,7.58333333 L14,6.41666667 L11.0366667,6.41666667 L11.0366667,6.41666667 Z M7,11.0833333 C6.80166667,11.0833333 6.608,11.0640833 6.41666667,11.0366667 L6.41666667,14 L7.58333333,14 L7.58333333,11.0366667 C7.392,11.0640833 7.19833333,11.0833333 7,11.0833333 L7,11.0833333 Z" id="Shape"></path>
                </g>
            </g>
        </g>
    </g>
</svg>