<?xml version="1.0" encoding="UTF-8" standalone="no"?>
<svg width="14px" height="14px" viewBox="0 0 14 14" version="1.1" xmlns="http://www.w3.org/2000/svg" xmlns:xlink="http://www.w3.org/1999/xlink">
    <!-- Generator: Sketch 39.1 (31720) - http://www.bohemiancoding.com/sketch -->
    <title>icon-dark</title>
    <desc>Created with Sketch.</desc>
    <defs></defs>
    <g id="Page-1" stroke="none" stroke-width="1" fill="none" fill-rule="evenodd">
        <g id="Desktop-HD" transform="translate(-1003.000000, -101.000000)" fill="#000000">
            <g id="Brightness" transform="translate(984.000000, 88.000000)">
                <g id="icon-dark" transform="translate(19.000000, 13.000000)">
                    <path d="M10.8888889,7 C10.8888889,9.14822222 9.14822222,10.8888889 7,10.8888889 C4.85177778,10.8888889 3.11111111,9.14822222 3.11111111,7 C3.11111111,4.85177778 4.85177778,3.11111111 7,3.11111111 C9.14822222,3.11111111 10.8888889,4.85177778 10.8888889,7 L10.8888889,7 Z M7,1.55555556 C7.26444444,1.55555556 7.52266667,1.58122222 7.77777778,1.61777778 L7.77777778,0 L6.22222222,0 L6.22222222,1.61777778 C6.47733333,1.58122222 6.73555556,1.55555556 7,1.55555556 L7,1.55555556 Z M3.74577778,2.64522222 L2.60088889,1.49955556 L1.50033333,2.60011111 L2.646,3.74577778 C2.95866667,3.32811111 3.32888889,2.95788889 3.74577778,2.64522222 L3.74577778,2.64522222 Z M11.354,3.745 L12.4996667,2.59933333 L11.3998889,1.49955556 L10.2542222,2.64522222 C10.6718889,2.95788889 11.0413333,3.32811111 11.354,3.745 L11.354,3.745 Z M7,12.4444444 C6.73555556,12.4444444 6.47733333,12.4187778 6.22222222,12.3822222 L6.22222222,14 L7.77777778,14 L7.77777778,12.3822222 C7.52266667,12.4187778 7.26444444,12.4444444 7,12.4444444 L7,12.4444444 Z M10.255,11.354 L11.4006667,12.4996667 L12.5012222,11.3991111 L11.3555556,10.2542222 C11.0421111,10.6711111 10.6718889,11.0413333 10.255,11.354 L10.255,11.354 Z M1.55555556,7 C1.55555556,6.73555556 1.58122222,6.47733333 1.61777778,6.22222222 L0,6.22222222 L0,7.77777778 L1.61777778,7.77777778 C1.58122222,7.52266667 1.55555556,7.26444444 1.55555556,7 L1.55555556,7 Z M12.3822222,6.22222222 C12.4187778,6.47733333 12.4444444,6.73555556 12.4444444,7 C12.4444444,7.26444444 12.4187778,7.52266667 12.3822222,7.77777778 L14,7.77777778 L14,6.22222222 L12.3822222,6.22222222 L12.3822222,6.22222222 Z M2.64522222,10.2542222 L1.49955556,11.3998889 L2.59933333,12.4996667 L3.745,11.354 C3.32811111,11.0413333 2.95788889,10.6718889 2.64522222,10.2542222 L2.64522222,10.2542222 Z" id="Shape"></path>
                </g>
            </g>
        </g>
    </g>
</svg>