<?xml version="1.0" encoding="UTF-8" standalone="no"?>
<svg width="16px" height="16px" viewBox="0 0 16 16" version="1.1" xmlns="http://www.w3.org/2000/svg" xmlns:xlink="http://www.w3.org/1999/xlink">
    <!-- Generator: Sketch 39.1 (31720) - http://www.bohemiancoding.com/sketch -->
    <title>icon-theme</title>
    <desc>Created with Sketch.</desc>
    <defs></defs>
    <g id="Page-1" stroke="none" stroke-width="1" fill="none" fill-rule="evenodd">
        <g id="Desktop-HD" transform="translate(-956.000000, -99.000000)" fill="#273238">
            <g id="Brightness" transform="translate(956.000000, 88.000000)">
                <g id="icon-theme" transform="translate(0.000000, 11.000000)">
                    <path d="M8,6 C9.10266667,6 10,6.89733333 10,8 C10,9.10266667 9.10266667,10 8,10 C6.89733333,10 6,9.10266667 6,8 C6,6.89733333 6.89733333,6 8,6 L8,6 Z M8,4.66666667 C6.15866667,4.66666667 4.66666667,6.15866667 4.66666667,8 C4.66666667,9.84133333 6.15866667,11.3333333 8,11.3333333 C9.84133333,11.3333333 11.3333333,9.84133333 11.3333333,8 C11.3333333,6.15866667 9.84133333,4.66666667 8,4.66666667 L8,4.66666667 Z M5.21066667,4.26733333 L2.81533333,1.87133333 L1.872,2.814 L4.26866667,5.21066667 C4.536,4.85266667 4.85266667,4.53533333 5.21066667,4.26733333 L5.21066667,4.26733333 Z M8,3.33333333 C8.22666667,3.33333333 8.448,3.35533333 8.66666667,3.38666667 L8.66666667,0 L7.33333333,0 L7.33333333,3.38666667 C7.552,3.35533333 7.77333333,3.33333333 8,3.33333333 L8,3.33333333 Z M11.732,5.21 L14.1286667,2.81333333 L13.186,1.87066667 L10.7893333,4.26733333 C11.1473333,4.53533333 11.464,4.85266667 11.732,5.21 L11.732,5.21 Z M3.33333333,8 C3.33333333,7.77333333 3.35533333,7.552 3.38666667,7.33333333 L0,7.33333333 L0,8.66666667 L3.38666667,8.66666667 C3.35533333,8.448 3.33333333,8.22666667 3.33333333,8 L3.33333333,8 Z M10.79,11.732 L13.186,14.1273333 L14.1293333,13.1846667 L11.7333333,10.7893333 C11.4646667,11.1466667 11.1473333,11.464 10.79,11.732 L10.79,11.732 Z M4.26733333,10.7893333 L1.872,13.1846667 L2.81466667,14.1273333 L5.21,11.732 C4.85266667,11.464 4.536,11.1473333 4.26733333,10.7893333 L4.26733333,10.7893333 Z M12.6133333,7.33333333 C12.6446667,7.552 12.6666667,7.77333333 12.6666667,8 C12.6666667,8.22666667 12.6446667,8.448 12.6133333,8.66666667 L16,8.66666667 L16,7.33333333 L12.6133333,7.33333333 L12.6133333,7.33333333 Z M8,12.6666667 C7.77333333,12.6666667 7.552,12.6446667 7.33333333,12.6133333 L7.33333333,16 L8.66666667,16 L8.66666667,12.6133333 C8.448,12.6446667 8.22666667,12.6666667 8,12.6666667 L8,12.6666667 Z" id="Shape"></path>
                </g>
            </g>
        </g>
    </g>
</svg>