<svg xmlns="http://www.w3.org/2000/svg" width="512" height="512" viewBox="0 0 512 512">
  <g fill="none" fill-rule="evenodd">
    <circle cx="256" cy="256" r="256" fill="#FF0000"/>
    <g fill="#FFFFFF" transform="translate(134.842 133.138)">
      <path d="M80.0846641,0.126547299 L80.0846641,198.214528 C80.0846641,252.269045 50.2035958,271.742101 11.9289689,284.164568 L0.177986989,252.269045 C30.3947977,240.518063 35.4309328,225.7454 35.4309328,196.535817 L35.4309328,0.126547299 L80.0846641,0.126547299 Z"/>
      <path d="M210.665374,0.126547299 L210.665374,232.124505 L153.253434,232.124505 L73.6824992,44.4445363 C76.0326956,64.9248191 79.7258614,94.4701451 79.7258614,137.445165 L79.7258614,150.520464 L39.4367805,150.520464 L39.4367805,0.126547299 L95.5057514,0.126547299 L176.419656,188.142258 C174.405202,175.384049 170.376293,141.809815 170.376293,108.907066 L170.376293,0.126547299 L210.665374,0.126547299 Z"/>
    </g>
  </g>
</svg>
