<svg width="32px" height="32px" viewBox="0 0 32 32" version="1.1"
  xmlns="http://www.w3.org/2000/svg"
  xmlns:xlink="http://www.w3.org/1999/xlink">
  <title>Jim Nielsen’s Blog</title>
  <defs>
    <rect id="path-1" x="0" y="0" width="32" height="32"></rect>
  </defs>
  <g id="Page-1" stroke="none" stroke-width="1" fill="none" fill-rule="evenodd">
    <g id="Group">
      <use id="Rectangle" fill="#FF0000" xlink:href="#path-1"></use>
      <path d="M44.8770624,-12 C44.9518273,-11.9771703 45.0253164,-11.9426777 45.1021227,-11.9332481 C45.7043249,-11.8583072 46.1485766,-11.6865884 45.7895518,-10.9614985 C45.7660761,-10.913854 45.8831994,-10.813602 45.8992751,-10.7312167 C45.9393369,-10.5274867 46.0549291,-10.2634567 45.9689366,-10.1237491 C45.6900354,-9.67112621 45.6139946,-9.20808108 45.5923051,-8.69143588 C45.5833741,-8.48050965 45.249356,-8.28298343 45.1557085,-8.08520907 C45.1023779,-7.69437516 45.0579782,-7.30180421 44.9786202,-6.91593327 C44.9748291,-6.89778298 44.8933829,-6.89478494 44.8023666,-6.89443768 L44.6671754,-6.89434218 C44.6462842,-6.89413672 44.6269225,-6.89370626 44.6101541,-6.89285546 C44.9186552,-6.46455113 44.8515453,-5.77395382 44.4838447,-5.20346039 C44.3478389,-4.992286 44.3243632,-4.71138189 44.2567431,-4.46025559 C44.2164261,-4.31235908 44.2424535,-4.10813285 44.1485508,-4.02103273 C43.8443877,-3.73839157 43.8724564,-3.36170213 43.7553332,-3.0234757 C43.6162653,-2.62271586 43.3776809,-2.25446346 43.213096,-1.93162225 C42.9349603,-1.86313326 42.7109206,-1.80779614 42.4866258,-1.75270717 C42.5287289,-1.61498475 42.5710872,-1.47751047 42.6065559,-1.36162512 L42.7665797,-1.48985586 C42.8136905,-1.52757443 42.8561126,-1.56150874 42.8984709,-1.59538101 C42.9482291,-1.49661791 43.0592283,-1.3809807 43.0365181,-1.30107688 C43.0144806,-1.22275218 42.9981202,-1.142188 42.9833311,-1.0609161 L42.9395717,-0.816509019 C42.8844386,-0.532464547 42.7982585,-0.258514742 42.5049981,-0.0603343159 C42.4218125,-0.00400460358 42.479481,0.249106879 42.3848128,0.399981175 C42.3493441,0.588077747 42.3125996,0.77617432 42.2796826,0.964519041 C42.2485518,1.13971189 42.2804481,1.41714193 42.1816972,1.47148645 C41.8604376,1.64816819 41.9150441,1.91046117 41.8545687,2.18317639 C41.7683211,2.57177696 41.5595917,2.93432193 41.4064894,3.30927434 C41.3610691,3.41970042 41.3184556,3.53186355 41.2878351,3.64675631 C41.2365459,3.83931956 41.1957186,4.03486059 41.111002,4.21576085 C41.0801264,4.53885022 41.1002849,4.87707664 41.007658,5.18254746 C40.8167905,5.81210023 40.4807311,6.40889741 40.3574838,7.04713538 C40.1423751,8.16330739 39.7312955,9.24697195 39.8392326,10.4264218 C39.9020046,11.1120562 39.7626815,11.8160535 39.6991441,12.5106212 C39.6904683,12.6044213 39.6149378,12.7349474 39.5330281,12.7731623 C39.052287,12.998233 39.1255209,13.2240482 39.5021525,13.4776559 C39.5485935,13.5091708 39.5700278,13.5759227 39.6225929,13.6553303 C39.2362649,13.8866047 39.2821956,14.1469125 39.4253462,14.5273241 C39.5843174,14.9511618 39.5585452,15.4424959 39.5973311,15.9057891 C39.6141723,16.1065413 39.616724,16.314986 39.5789588,16.5112715 C39.5498694,16.6599125 39.4467805,16.7946571 39.3653812,16.958187 C40.0265277,17.2438059 39.4233048,17.8383697 39.5884001,18.2857815 C39.625655,18.3870261 39.5950345,18.5113485 39.5980966,18.6250005 C39.6039655,18.8666972 39.6172344,19.1078975 39.6177447,19.349346 C39.6187654,19.8927913 39.6213171,20.4364847 39.6085586,20.9796818 C39.5983518,21.4151824 39.5577797,21.8499386 39.5498694,22.2854392 C39.5475728,22.4154691 39.6118758,22.5464915 39.6430066,22.6775139 C39.6812821,22.8405475 39.742523,23.0030847 39.7496678,23.1673591 C39.7792676,23.8706119 39.7698263,24.5760982 39.8165225,25.2781103 C39.8920529,26.4119009 39.9976935,27.5439544 40.0989961,28.6760079 C40.112265,28.8283711 40.1883058,28.9742824 40.2071884,29.1266456 C40.2247952,29.2648643 40.1972367,29.408046 40.2025953,29.5489944 C40.2061677,29.645276 40.2298986,29.7408132 40.2472501,29.8363503 C40.3485528,30.3969178 40.4720553,30.9547557 40.5409513,31.5187972 C40.5646822,31.7123531 40.4529175,31.921046 40.3896352,32.1788723 C40.6325575,32.2982317 40.7239085,32.485832 40.70375,32.8821252 C40.688695,33.1754367 40.9482033,33.5640373 41.0140373,33.9429601 C41.1061538,34.4747423 41.2965109,34.9913875 41.3771448,35.5239142 C41.4371098,35.9184704 41.3888826,36.3281636 41.3888826,36.7038604 C41.5894466,37.1006499 41.7933278,37.505132 41.9989951,37.9123437 C41.9147889,38.0488254 41.8298171,38.1862996 41.807107,38.2237701 C41.9951676,38.4031814 42.1730214,38.4962371 42.2199727,38.6319744 C42.3470476,38.9967527 42.4182401,39.3796458 42.5162256,39.7749464 C42.4312538,39.9526207 42.2903998,40.1843915 42.21589,40.4352696 C42.1860351,40.534529 42.2681999,40.7290774 42.3613371,40.7886331 C42.8448851,41.099315 42.97196,41.6196825 43.2095236,42.0752831 C43.2437165,42.1407943 43.2868403,42.2549426 43.2562198,42.2916686 C42.9099536,42.7078137 43.2544336,42.8192324 43.5927896,42.9418177 C43.4149358,43.3929517 43.4021773,43.7882523 43.8872563,44.056749 C43.9617661,44.0979417 43.9791176,44.24559 44.0115243,44.3478272 C44.139875,44.7510685 44.2666947,45.154558 44.3866248,45.5597845 C44.4266866,45.6940329 44.4445485,45.8347331 44.4134177,46 C44.0924133,45.7989997 43.7290506,45.712644 43.6328514,45.2669693 C43.5779897,45.0116245 43.2633646,44.820302 43.1498138,44.5644609 C42.8923468,43.9847859 42.6951001,43.380048 42.4577916,42.7916879 C42.3182133,42.446017 42.1355113,42.1164758 41.9959331,41.771053 C41.822162,41.3407635 41.6759494,40.9002999 41.5118748,40.4665363 C41.3531588,40.0474135 41.1852566,39.6312684 41.0239889,39.21289 C40.9622377,39.0525861 40.9066105,38.8900488 40.8494524,38.728256 C40.7524876,38.4535556 40.5585581,38.1706663 40.5805027,37.9048992 C40.6233714,37.3902392 40.3615665,37.0016386 40.2074436,36.5562121 C39.9857005,35.9152444 39.8866943,35.2335805 39.751454,34.566061 C39.7241508,34.4313163 39.7698263,34.2826754 39.7818193,34.1404863 C39.8267293,34.1191455 39.8716393,34.0975566 39.9168044,34.0762158 C39.5409384,33.7809191 39.5621176,33.3613 39.4674493,32.9506142 C39.2339684,31.9364312 39.0696386,30.9105852 38.9507292,29.8852356 C38.8075786,28.6531782 38.3788923,27.448169 38.5822631,26.1724375 C38.6401868,25.8111333 38.3625614,25.404666 38.3985404,25.033684 C38.4799398,24.1964309 38.2765689,23.3934224 38.213797,22.5747804 C38.1908317,22.2789874 38.2398244,21.9777351 38.2148177,21.6821902 C38.1474527,20.8910928 38.3646027,20.1064472 38.1859834,19.302446 C38.0754946,18.8054045 38.1944041,18.2612148 38.1992523,17.7378696 C38.2058867,17.0872242 38.2007833,16.4363307 38.2007833,15.7623593 C38.5381186,15.8497076 38.8634609,15.9338299 39.188548,16.0182004 C39.2053893,15.9725411 39.2219754,15.9271299 39.2390718,15.8819669 C39.0321286,15.793626 38.8305439,15.6906444 38.6174766,15.6214109 C38.3753199,15.5427479 38.2525829,15.467807 38.3023412,15.1558843 C38.345465,14.8844099 38.2143074,14.5846465 38.1494941,14.2995238 C38.0793222,13.9918197 38.1921075,13.8655121 38.5202567,13.8605491 C38.7175034,13.8575713 38.9134743,13.7791564 39.0997487,13.6409377 C38.8369232,13.5937894 38.574608,13.5463931 38.290093,13.4950263 C38.2681483,13.3994892 38.2778448,13.2141222 38.2030799,13.1726814 C38.0959083,13.1131258 37.8320621,13.1091554 37.8001658,13.1672221 C37.5929674,13.5454005 37.429148,13.945664 37.2548665,14.3407165 C37.2234806,14.4116869 37.1895429,14.4915908 37.1938808,14.565539 C37.2086807,14.8270875 37.3814311,15.1392584 36.836387,15.1020361 C36.7258983,15.0943435 36.5271205,15.509496 36.470983,15.7519371 C36.4041283,16.0410301 36.0956273,17.1725873 35.9509457,17.3946802 C35.8853669,17.4951804 35.8743945,17.6296769 35.8083054,17.7299288 C35.7080234,17.8830365 35.5809485,18.01927 35.3865087,18.2602222 C35.3717088,18.6738858 35.0050289,19.0892864 34.7031623,19.5329759 C34.6511075,19.6096538 34.5240326,19.6687132 34.5191844,19.7409244 C34.4892313,20.2108604 34.252566,20.5632328 33.9810086,20.8954762 L33.7437075,21.1775992 C33.5851534,21.365425 33.4312358,21.5557681 33.3140145,21.7668089 C33.0391959,22.2613688 32.7521292,22.7504696 32.4469454,23.2281554 C32.0606173,23.8333897 31.6444344,24.4207572 31.2547891,25.0242544 C31.1488934,25.1875361 31.0917352,25.3808438 30.9414398,25.7208073 C30.8748404,25.519807 30.8312062,25.3875438 30.7875721,25.2552806 C30.7401104,25.2786066 30.6923935,25.3019326 30.6449318,25.3250104 C30.8906609,26.1059337 30.2540107,26.5426751 29.9222892,27.0645314 C29.4326171,27.8352807 28.8628215,28.5856818 28.1935095,29.2095272 C27.8291261,29.5497388 27.4611704,30.1117952 26.7765481,29.9730802 C26.4675367,30.5056069 26.1003465,30.6276959 25.5703575,30.2954251 C25.1669331,30.0423136 24.811991,29.7132687 24.4519455,29.4001052 C24.3917253,29.3477459 24.4228561,29.2018346 24.3981046,29.1025752 C24.3674841,28.9767639 24.3299741,28.851697 24.282002,28.7315932 C24.2541885,28.6621116 24.1607961,28.6005707 24.1638581,28.5385336 C24.1863131,28.114696 24.2258645,27.6916027 24.2615884,27.2682614 C24.2707745,27.1618057 24.3383947,27.0250758 24.2929744,26.9541054 C23.8242263,26.2205784 24.0084593,25.3756327 23.8890396,24.58925 C23.8055988,24.0400974 24.0281075,23.4517373 24.0742933,22.8780179 C24.1444652,22.0055277 24.2919537,21.1417227 24.1146102,20.2508696 C24.0306592,19.830506 24.2291818,19.3602646 24.2786848,18.9106195 C24.2993536,18.7212822 24.2649056,18.5262374 24.2557195,18.3339223 L24.039335,18.3272223 L24.039335,18.3272223 C23.9339496,18.7905156 23.8275435,19.2535607 23.723434,19.7171021 C23.7099099,19.7781467 23.7236891,19.8503579 23.6951101,19.9017246 C23.474898,20.2970252 23.1970174,20.6570887 23.1493005,21.1380005 C23.1273559,21.3623268 23.0087016,21.6201531 22.6376838,21.5851641 C22.5473535,21.5767271 22.444775,21.817183 22.3291828,21.924135 C21.8760001,22.3427616 21.4217967,22.1896539 21,21.9288498 C21.0768063,21.678468 21.1518264,21.4335454 21.2271017,21.1886228 C22.278659,20.3506253 22.3646514,19.0907753 22.6068082,17.8974291 C22.6159943,17.8517698 22.5988979,17.7840252 22.6254356,17.7609474 C23.1421557,17.3147764 23.0035982,16.634105 23.2631065,16.0976079 C23.2906649,16.0410301 23.3651747,16.0077782 23.409064,15.9566596 C23.4968426,15.855415 23.6550483,15.7454852 23.6502001,15.6459776 C23.6137107,14.9308136 24.0816932,14.4404722 24.4093321,13.8779195 C24.6213787,13.5141338 24.7407985,13.0974924 24.8865008,12.6992141 C25.1403954,12.0066316 25.3960761,11.3140491 25.6236881,10.6132777 C25.7438734,10.2432882 25.7982247,9.85344691 25.8977412,9.47650932 C26.0610503,8.86010842 26.2526832,8.25065567 26.3996614,7.63078068 C26.4512058,7.41340259 26.4078269,7.17468372 26.4078269,6.95556858 C26.5634808,6.88583885 26.6964246,6.82603506 26.9151057,6.72801639 C26.4404887,6.50388866 26.4693536,6.21702898 26.5658611,5.92181563 L26.6177339,5.77376456 C26.6266463,5.74905728 26.6355239,5.72435492 26.6441147,5.69968896 L26.8640716,5.04333614 L26.8640716,5.04333614 C26.9612915,4.76143943 27.0898974,4.48673903 27.1544555,4.19814231 C27.2251377,3.8829937 27.2052344,3.54824135 27.2822959,3.23532608 C27.4578532,2.52214725 27.6676033,1.81690918 27.8653603,1.10894148 C27.9679389,0.741929825 28.0457658,0.364744086 28.1891716,0.0131176438 C28.2943018,-0.244708661 28.3976459,-0.568294321 28.8253115,-0.487149758 C28.9569794,-0.462334906 29.1029369,-0.523627589 29.2412393,-0.518168322 C29.9365787,-0.490375688 29.8360416,-0.470275659 29.9493372,0.166969722 C30.033961,0.641249206 29.9382784,1.07189557 29.8143473,1.49474958 L29.6866317,1.91633358 C29.6236976,2.1271543 29.5663728,2.33901365 29.5336646,2.55639175 C29.4415481,3.16832598 29.269308,3.76983798 29.117992,4.37259071 C29.0738475,4.54877616 28.9541726,4.70759121 28.9123246,4.88427295 C28.8130633,5.30289949 28.7559051,5.73070752 28.6525611,6.14834147 C28.5015002,6.7597794 28.3103776,7.3617877 28.1644201,7.97421823 C28.008511,8.62759326 27.8959808,9.29089423 27.7428785,9.94476556 C27.6727067,10.2435364 27.5430801,10.5284109 27.4517291,10.8229631 C27.3537436,11.1400969 27.2731098,11.4624419 27.1771657,11.7803201 C27.0462633,12.21458 26.9253125,12.6533066 26.7665965,13.078385 C26.6755006,13.322315 26.8194168,13.6754303 26.4328336,13.8039712 C26.4017028,13.8143935 26.4037441,14.0193641 26.4430404,14.112668 C26.6150252,14.5186389 26.472385,14.8270875 26.2212973,15.0427286 L26.2212973,15.9961152 C25.8431347,15.9747744 25.6670671,16.1832192 25.8229762,16.5159863 C25.9929197,16.8785313 25.8229762,17.0629056 25.5131993,17.2591911 C26.2340558,17.5373656 25.7841903,18.069396 25.78368,18.4939781 C25.7834248,18.9796048 25.6816118,19.4652314 25.6231778,19.9506099 C25.6093986,20.0674878 25.6341501,20.251614 25.5703575,20.2885882 C25.3098285,20.438718 25.1939811,20.53897 25.5749506,20.6734665 C25.6137365,20.6873628 25.6282812,20.8072186 25.6287915,20.8784372 C25.6326191,21.4757306 25.6308329,22.0732723 25.6308329,22.699351 C25.4129174,22.6780102 25.2960493,22.6663472 25.0806855,22.6450064 C25.2613461,22.8891846 25.3879107,23.060407 25.5295303,23.2519777 C25.4244,23.3202185 25.2914562,23.4068224 25.1587676,23.4931781 C25.1697399,23.5177448 25.1809674,23.5423115 25.1921949,23.5668782 C25.3108492,23.5316411 25.4287379,23.4966521 25.605571,23.4442928 L25.605571,25.319303 C25.605571,25.3823327 25.6229226,25.4505735 25.6037848,25.5073995 C25.400414,26.1081671 25.5836264,26.6699753 25.7497423,27.2449354 C25.8556381,27.6114508 25.8561484,28.0060069 25.9490304,28.3774852 C25.9883267,28.5360521 26.1161671,28.7072746 26.2557453,28.7938784 C26.3200482,28.8338303 26.5451086,28.7157117 26.6349285,28.6159559 C27.2506548,27.9305698 27.8589811,27.2382354 28.4456179,26.5295233 C28.5487067,26.4052009 28.5384999,26.1922894 28.6556232,26.0803744 C28.8628215,25.7629925 29.0707854,25.446355 29.2764528,25.1279805 C29.3871968,24.9557654 29.4877339,24.7770985 29.6033261,24.6083575 C29.9072341,24.1654124 30.2073145,23.7194895 30.5270431,23.2874629 C30.7778756,22.9484921 31.0560114,22.6288768 31.3617055,22.2514429 C31.4010018,22.1556576 31.435705,21.959124 31.5464489,21.8194163 C31.8546948,21.4310639 32.2328574,21.0906042 32.5043587,20.6816554 C32.6311784,20.4910773 32.5758064,20.1856065 32.6074476,19.8915505 C32.9503966,19.8367097 33.1550433,19.6352131 33.1310573,19.2344533 C33.1249332,19.1294865 33.2405254,19.0165789 33.3045732,18.9093787 C33.6324672,18.3599779 33.9677611,17.8142993 34.2887655,17.2609282 C34.6156388,16.6966384 34.9445535,16.1325969 35.2428477,15.5539145 C35.4377979,15.1757362 35.5653832,14.7655467 35.7485955,14.3814128 C36.0693447,13.7084341 36.438066,13.0555553 36.7327879,12.3724025 C36.9494275,11.8713906 37.0537923,11.3254639 37.2589493,10.8187446 C37.3793897,10.520222 37.5985811,10.2591697 37.773628,9.9812434 C37.806545,9.92913221 37.8841168,9.8554321 37.8695721,9.8303691 C37.705949,9.54572367 37.8028473,9.33184021 37.9332846,9.12614689 L38.0338545,8.97243487 C38.0837371,8.895369 38.1303563,8.81725508 38.1617422,8.73479342 C38.314079,8.33477801 38.3222444,7.86279954 38.5439875,7.51241384 C38.8639713,7.00668717 38.6963243,6.43123077 38.8902538,5.95801156 C39.091679,5.4668326 39.1712004,4.96663887 39.2303631,4.46421567 L39.2980849,3.86067196 C39.3099095,3.76004774 39.3225444,3.65944291 39.3368021,3.55891174 C39.4605597,2.68741416 39.5501245,1.80946473 39.7246611,0.947893091 C39.8366809,0.393777462 40.0752653,-0.136019612 40.2028505,-0.51519054 C40.2985394,-1.01446535 40.3454908,-1.35963993 40.4345452,-1.69414412 C40.5131377,-1.98894456 40.5792269,-2.31798948 40.7639703,-2.54430093 C40.8933417,-2.70286783 41.2133254,-2.71453081 41.525654,-2.81676799 C41.3927102,-2.93314965 41.2046496,-3.09816841 40.9379965,-3.33167616 C41.1120227,-3.78156941 41.3143729,-4.30466648 41.5177437,-4.82726724 C41.5567848,-4.92727109 41.6129223,-5.02256012 41.637929,-5.12529361 C41.7701073,-5.668987 41.8484446,-6.22955449 42.0324225,-6.75538119 C42.3143858,-7.56111941 42.6494245,-8.35122427 43.0041114,-9.1299143 C43.0839798,-9.304859 43.3391502,-9.40411841 43.5981482,-9.60338167 C43.4419839,-10.5877868 43.9188974,-11.3999769 44.8770624,-12 Z M20.2442392,0.000744594225 C20.4379245,0.0134280613 20.6874638,0.163311183 20.7879146,0.322877382 C20.9167976,0.527858575 20.9251685,0.802121503 20.9775588,1.04801711 C20.9968984,1.13980177 21.0022385,1.23608701 20.9992076,1.32978101 C20.9938676,1.48811978 20.973229,1.64591302 20.9652911,1.8041154 C20.9569202,1.96859133 20.986074,2.14125014 20.9414773,2.29549746 C20.9066948,2.41551307 20.7837292,2.51275298 20.6883298,2.63508707 C20.6480629,3.12215909 20.5517976,3.58020994 20.5624777,4.07500153 C20.5631993,4.10855135 20.4771811,4.14360136 20.4945002,4.13064513 C20.460728,4.36917614 20.4343163,4.5305153 20.415554,4.69267274 C20.3664832,5.11586412 20.3210206,5.53932826 20.2731044,5.96265602 C20.268486,6.0045251 20.2663211,6.04953095 20.2484247,6.08676307 C20.0131736,6.5769177 20.1030885,7.07866474 20.1823234,7.58082094 C20.1925706,7.64532932 20.1872305,7.71229257 20.1867975,7.77802839 L20.1786298,8.24800868 C20.178138,8.32631179 20.1789077,8.40456439 20.1821791,8.48271091 C20.2012301,8.93767915 20.2315385,9.39223824 20.2593934,9.84693372 L20.3235275,10.8182317 C20.3332401,10.9801416 20.3415629,11.1421021 20.3471435,11.3041686 C20.3530609,11.4772366 20.3021139,11.6519411 20.2803207,11.8044155 C20.3120724,11.964118 20.3621534,12.1133193 20.3680708,12.2641571 C20.3872661,12.7549936 20.3747098,13.2471939 20.4057398,13.7370758 C20.4237805,14.021431 20.5053246,14.3018311 20.5507873,14.5850951 C20.5735908,14.7270682 20.5834049,14.8710869 20.5919201,15.0146965 C20.6127031,15.3631508 20.6295892,15.7116052 20.6476299,16.060196 C20.6497948,16.1024742 20.6640831,16.1506169 20.6480629,16.186076 C20.5520862,16.3990258 20.5728956,16.607731 20.6125032,16.8174601 L20.6627841,17.0699636 L20.6627841,17.0699636 C20.7118549,17.3359073 20.7311946,17.607579 20.7466374,17.8773413 C20.7493796,17.9246657 20.6676912,17.9762178 20.6632171,17.9814003 C20.7108446,18.2758477 20.7675647,18.5330629 20.7906568,18.7927331 C20.8150479,19.0656322 20.805378,19.3412589 20.8137489,19.6153855 C20.8276042,20.0658531 20.8590673,20.5163208 20.8551705,20.966652 C20.8506964,21.4730361 20.812883,21.9790109 20.7945536,22.4852586 C20.7877703,22.6714191 20.8102851,22.8592163 20.7928217,23.0438766 C20.7535651,23.4594307 20.6671139,23.8728026 20.6593203,24.2882202 C20.6539803,24.5688931 20.5593025,24.7779657 20.4171416,25.0178605 C20.279599,25.250118 20.3158248,25.5684321 20.2344251,25.8377853 C20.1608189,26.081226 20.1292115,26.3710364 19.8727445,26.4444096 C19.8486421,26.6564826 19.8476318,26.8456436 19.8026022,27.0252579 C19.7116769,27.3884414 19.6126694,27.7510795 19.4871059,28.10458 C19.3901189,28.3777519 19.2557516,28.6404224 19.1225388,28.900638 C18.9903364,29.1589443 18.8575566,29.4203874 18.6899943,29.6585093 C18.5267618,29.890494 18.3379836,30.112932 18.1265463,30.3068663 C17.8080192,30.5989952 17.4656783,30.8688939 17.1231931,31.1364741 C16.7811409,31.4037816 16.41845,31.6213099 15.9547311,31.683227 C15.4911566,31.7452806 15.0407156,31.8894357 14.5785843,31.9649909 C14.3053755,32.009724 14.0204763,32.0009956 13.7413502,31.9952676 C13.6699089,31.993631 13.6004882,31.9123477 13.5952924,31.9089382 L13.4363153,31.9092557 L13.4363153,31.9092557 L13.1647978,31.9096862 C13.1227697,31.9095008 13.081709,31.9091087 13.0406483,31.9083927 C12.8000571,31.904574 12.5932382,31.8577952 12.3594303,31.746508 C12.1559309,31.6495408 11.9570499,31.3598668 11.6201934,31.5101591 C11.5520716,31.5407085 11.3850866,31.373505 11.2473998,31.2873119 C11.1107232,31.4329672 10.9513875,31.2777652 10.7797841,31.2106656 C10.6939102,31.1771158 10.5937481,31.1779341 10.5035444,31.1522944 C10.2993234,31.0946051 10.0972672,31.0302331 9.89420078,30.9689978 C9.66457839,30.8995797 9.39007065,30.8826684 9.21644668,30.7486055 C9.00241147,30.5835841 8.60176295,30.5395329 8.64765857,30.1460727 C8.64852452,30.1382989 8.62052531,30.1273884 8.58271194,30.1027034 C8.55096026,30.171576 8.52151779,30.2355388 8.47085942,30.3449167 C8.37372814,30.2409941 8.24599978,30.1621657 8.21294916,30.0568793 C8.13948731,29.8231216 8.00266642,29.8293951 7.79397127,29.8666272 C7.67706735,29.8874936 7.4522077,29.8430333 7.42998152,29.7794796 C7.3404995,29.5259466 7.10279486,29.5637242 6.94403644,29.4726215 L6.87036612,29.344524 C6.85681553,29.3238446 6.84180564,29.3043723 6.82410168,29.2874156 C6.76261887,29.2286352 6.6543745,29.2044957 6.61107675,29.1390327 C6.49705934,28.9666466 6.36788772,28.8763621 6.13999723,28.9339151 C6.09655515,28.944962 6.00562988,28.8613602 5.96723921,28.8033981 C5.8191609,28.5795963 5.8018418,28.2584182 5.46700587,28.1748164 C4.84106474,28.0190689 4.52975392,27.4740889 4.03760283,27.1522289 C3.90107059,27.0630355 3.80552689,26.9076971 3.71792111,26.7677698 C3.69093218,26.7248097 3.75241498,26.6323431 3.77377521,26.5610157 C3.17049323,26.3458059 3.10828879,26.2658864 3.32896299,25.9297063 C3.04839357,25.9595739 2.95818993,25.7964617 2.88025398,25.5931171 C2.84792499,25.5086971 2.72611399,25.456463 2.64875534,25.3859538 C2.59708669,25.3387659 2.53661417,25.2922598 2.50645007,25.2334795 C2.32575413,24.8803881 2.14159437,24.5282514 1.98009376,24.1672499 C1.8009854,23.7668343 1.54278649,23.3642365 1.51016885,22.949228 C1.48289127,22.6010463 1.30132937,22.3443766 1.21559982,22.0402462 C1.21329061,22.0319269 1.2031878,22.0229257 1.20506404,22.0167886 C1.32341122,21.6506046 1.06203714,21.3487926 1.01556422,21.0108396 C1.00964686,20.9681522 0.987997986,20.9095082 1.00892523,20.8842777 C1.21256898,20.6393368 1.04313045,20.3748933 1.0634804,20.113723 C1.08426332,20.1069039 1.10807708,20.0939477 1.13304545,20.091902 C1.5271993,20.0571247 1.5227252,20.0563064 1.40885211,20.4349011 C1.3847497,20.5145478 1.3931206,20.608651 1.40856346,20.6923891 C1.48794267,21.1230815 1.51608621,21.5739583 1.68061766,21.9742376 C1.77717164,22.2088135 1.70630765,22.4241597 1.77774894,22.631323 C1.81267579,22.7323816 1.93694033,22.814074 2.03652516,22.884856 C2.15747021,22.9707762 2.30396093,23.0275109 2.1350997,23.1968965 C2.10320369,23.2289461 2.10464695,23.3233221 2.1306256,23.3683279 C2.26831245,23.6064498 2.20524206,23.9692242 2.60560192,24.0509166 C2.65813652,24.0616908 2.69176444,24.1553848 2.74141253,24.2200295 C2.69493961,24.2418506 2.65207483,24.2623078 2.60935439,24.2824922 C2.61758096,24.305677 2.61815826,24.3274981 2.62984866,24.3364992 C2.8418633,24.4993386 2.96439594,24.6934093 3.0228479,24.9601712 C3.05820773,25.1217831 3.26459367,25.2525729 3.40213619,25.3899089 C3.44254742,25.4302778 3.54848258,25.4351875 3.56060595,25.4740562 C3.69381869,25.9005207 4.10153917,26.1199584 4.36478949,26.4467281 C4.42410741,26.5202377 4.49756926,26.6077945 4.50262066,26.6922146 C4.51472799,26.8905737 4.62826431,26.9934658 4.76265265,27.0767286 L4.92877069,27.1720755 C4.98404175,27.2039528 5.03749219,27.237543 5.08396511,27.2776998 C5.19249814,27.3715301 5.28760886,27.4799533 5.38344122,27.5861944 C5.45459385,27.6648865 5.49933486,27.7956762 5.58593036,27.8259529 C6.18055279,28.0332525 6.6158395,28.4597171 7.12170154,28.7883962 C7.37831287,28.9551906 7.64704757,29.1064375 7.91823581,29.2512745 C8.44589106,29.5327657 8.97830905,29.8064831 9.51072705,30.0796549 C9.62243524,30.1369351 9.74424624,30.1766221 9.86042854,30.2264013 C10.2454899,30.3916955 10.6217473,30.5793563 11.0173444,30.717647 C11.4005295,30.8515735 11.8050748,30.9306747 12.1967751,31.0440076 C12.2895766,31.0710111 12.3631828,31.157886 12.4559843,31.1842076 C12.6573188,31.2410787 12.8638491,31.2852662 13.0712453,31.317725 C13.2139836,31.3400915 13.3620619,31.3425464 13.5072537,31.3387277 C13.7018049,31.3335452 13.8965004,31.3200435 14.0898971,31.2990407 C14.3782601,31.2679458 14.6677777,31.2384874 14.9523882,31.1867989 C15.1915361,31.1434296 15.4374674,31.0961053 15.6571313,31.0021385 C15.9791222,30.8643933 16.3522045,30.7438322 16.5751879,30.507756 C16.676649,30.4002193 16.788303,30.301948 16.9030714,30.2064939 L17.2496406,29.9221345 C17.4774769,29.7295981 17.6894555,29.5225371 17.8289464,29.2493652 C17.9445514,29.0229721 18.1600299,28.8421304 18.2744802,28.6154646 C18.4030746,28.3608406 18.4625368,28.0760763 18.5632762,27.8080869 C18.7096226,27.418309 18.8868548,27.0376686 19.0118409,26.642299 C19.1193637,26.3014819 19.1669912,25.9440264 19.2515661,25.5962539 C19.292699,25.4270046 19.3647176,25.2645744 19.4104689,25.0961434 C19.4946108,24.7857394 19.5761549,24.474108 19.6451427,24.1605673 C19.6731419,24.0331871 19.6556785,23.897624 19.6761727,23.7683345 C19.7255322,23.4553392 19.7851387,23.1438442 19.8417145,22.8259392 C20.1253147,22.8117555 20.1587983,22.7758872 20.0836046,22.5110346 C20.0377089,22.5379018 20.0006172,22.5694059 19.9573195,22.5820893 C19.9107022,22.5960002 19.8443123,22.6114113 19.8125606,22.5906814 C19.7831182,22.5714516 19.7763349,22.5042156 19.7802317,22.4597552 C19.8073649,22.1490785 19.8492194,21.8389473 19.8687034,21.5278614 C19.8975686,21.063892 19.9568865,20.5952856 19.9128671,20.1364987 C19.8920842,19.917743 19.8812597,19.6980326 19.869425,19.478595 C19.8505183,19.1218213 19.8288695,18.765184 19.8147255,18.4084104 C19.8004373,18.0430447 19.8034681,17.6769971 19.7797987,17.3123133 C19.7678196,17.1275166 19.7836955,16.9494025 19.7009968,16.7535589 C19.6227722,16.568353 19.7292846,16.3134562 19.7587271,16.0521495 C19.9082487,16.1065657 19.9939782,16.137797 20.0797078,16.1690283 C19.5334345,15.8708987 19.5240533,15.4444341 19.7339031,14.9295945 C19.3836243,14.7175215 19.6520703,14.3833871 19.6055974,14.0956224 C19.549599,13.7483955 19.5882783,13.3882123 19.5667738,13.0347118 C19.5575369,12.883874 19.4823431,12.7369913 19.4703641,12.5858807 C19.4630035,12.4927322 19.5182803,12.3952195 19.5576812,12.2572016 C19.3354194,12.1684173 19.3144922,11.987712 19.4035412,11.7075847 C19.4681992,11.5038309 19.3677484,11.2541167 19.3468212,11.0244504 C19.3219971,10.750733 19.3032348,10.4764701 19.2828848,10.2024799 C19.2797097,10.1595198 19.2645555,10.1042854 19.2859157,10.074827 C19.5000952,9.78092514 19.3664495,9.49125112 19.3152138,9.18534771 C19.2551743,8.82748301 19.2851941,8.45652569 19.2683079,8.09156915 L19.2550139,8.01694329 L19.2550139,8.01694329 L19.2037943,7.868722 L19.2037943,7.868722 C19.1737745,7.86381227 19.1438991,7.85890254 19.1140236,7.85399281 C19.0093874,8.05379151 18.9061944,8.25427212 18.7998263,8.45325254 C18.7015404,8.63682186 18.613646,8.82734662 18.4965977,8.99973267 C18.2493676,9.3640073 17.991313,9.72214477 17.7274853,10.0760544 C17.5317795,10.3384522 17.3334758,10.6009863 17.1123686,10.8441543 C16.7335133,11.2603902 16.3380606,11.6631244 15.9436181,12.0662677 C15.8994543,12.1114099 15.8127145,12.1505514 15.7519533,12.1434595 C15.5916073,12.1251844 15.4747034,12.1290031 15.4866825,12.3262106 C15.4882701,12.3533505 15.4583946,12.3920828 15.43155,12.4094032 C15.1719078,12.5764704 14.9183273,12.7543117 14.6459845,12.9007853 C14.329045,13.071262 13.9972399,13.2180083 13.6675997,13.3668004 C13.2134063,13.5717816 12.7511306,13.6026038 12.2771646,13.4163068 C12.0826134,13.3396605 12.0722219,13.2538766 12.2061563,13.1099943 C12.366358,12.9380174 12.5450334,12.8425504 12.7994798,12.851688 C13.076874,12.8615074 13.3394027,12.8436415 13.5837464,12.6465704 C13.8130801,12.4617737 14.123092,12.3695799 14.3823012,12.2138323 C14.6624376,12.0459469 14.9259766,11.8528309 15.1948556,11.6685796 C15.4061487,11.523879 15.6291321,11.390498 15.8193535,11.2239764 C15.9340925,11.1234633 15.9931218,10.9673066 16.0833255,10.8400628 C16.1539008,10.7407772 16.2292389,10.6436737 16.3113603,10.5525709 C16.4314394,10.4191899 16.5652294,10.2967195 16.6827106,10.1615655 C16.8411804,9.97908726 16.9947431,9.79251755 17.1402235,9.60090173 C17.2312931,9.48088613 17.3098064,9.35146021 17.3829796,9.22067048 C17.4796779,9.04746615 17.5525624,8.86144197 17.6606625,8.69546584 C17.7302275,8.58867923 17.8715225,8.52144322 17.932861,8.41247451 C18.0330231,8.23408768 18.0757436,8.02665162 18.1770603,7.8489467 C18.278377,7.67151454 18.4222699,7.51603979 18.5459571,7.3497909 C18.5612557,7.32919731 18.5768429,7.3015119 18.5753996,7.2780543 C18.5505756,6.86140923 18.882092,6.54336788 18.9246681,6.1458162 C18.9255341,6.13722417 18.9249568,6.12645004 18.9301525,6.12085841 C19.2182269,5.80268068 19.2169279,5.40594729 19.2659987,5.02257927 C19.2703285,4.98902945 19.2952969,4.95684345 19.2954412,4.92383916 C19.2967401,4.64343907 19.2883692,4.36303898 19.2963071,4.08277527 C19.2996266,3.96439624 19.3398935,3.84724465 19.3550478,3.72859286 C19.4049845,3.33622367 19.4511688,2.94330895 19.5024044,2.51929929 C19.627102,2.52748217 19.6828117,2.13920442 19.6715543,1.87080589 C19.6562558,1.50339449 19.8666828,1.19285412 19.8229521,0.843308675 C19.8140039,0.77184484 19.7692629,0.704472445 19.7470367,0.649647135 C19.7943756,0.567409171 19.8749094,0.492944945 19.8720229,0.421481109 C19.8613428,0.162083751 20.0388636,-0.0128935424 20.2442392,0.000744594225 Z" id="Combined-Shape" stroke="#FFFFFF" stroke-width="2.325" mask="url(#mask-2)"></path>

    </g>
  </g>
</svg>
